<svg width="24" height="24" viewBox="0 0 24 24" fill="none" xmlns="http://www.w3.org/2000/svg">
<g id="bi:question">
<path id="Vector" d="M7.88264 8.679C7.88059 8.72744 7.88847 8.77579 7.90579 8.82107C7.92311 8.86636 7.94952 8.90762 7.98338 8.94232C8.01724 8.97703 8.05784 9.00444 8.10268 9.02287C8.14753 9.0413 8.19567 9.05036 8.24414 9.0495H9.48164C9.68864 9.0495 9.85364 8.88 9.88064 8.6745C10.0156 7.6905 10.6906 6.9735 11.8936 6.9735C12.9226 6.9735 13.8646 7.488 13.8646 8.7255C13.8646 9.678 13.3036 10.116 12.4171 10.782C11.4076 11.5155 10.6081 12.372 10.6651 13.7625L10.6696 14.088C10.6712 14.1864 10.7114 14.2803 10.7816 14.3493C10.8517 14.4183 10.9462 14.457 11.0446 14.457H12.2611C12.3606 14.457 12.456 14.4175 12.5263 14.3472C12.5966 14.2768 12.6361 14.1815 12.6361 14.082V13.9245C12.6361 12.8475 13.0456 12.534 14.1511 11.6955C15.0646 11.001 16.0171 10.23 16.0171 8.6115C16.0171 6.345 14.1031 5.25 12.0076 5.25C10.1071 5.25 8.02514 6.135 7.88264 8.679ZM10.2181 17.3235C10.2181 18.123 10.8556 18.714 11.7331 18.714C12.6466 18.714 13.2751 18.123 13.2751 17.3235C13.2751 16.4955 12.6451 15.9135 11.7316 15.9135C10.8556 15.9135 10.2181 16.4955 10.2181 17.3235Z" fill="#D3FB58"/>
</g>
</svg>
