<svg width="24" height="25" viewBox="0 0 24 25" fill="none" xmlns="http://www.w3.org/2000/svg">
<g id="bi:question">
<path id="Vector" d="M7.88264 9.179C7.88059 9.22744 7.88847 9.27579 7.90579 9.32107C7.92311 9.36636 7.94952 9.40762 7.98338 9.44232C8.01724 9.47703 8.05784 9.50444 8.10268 9.52287C8.14753 9.5413 8.19567 9.55036 8.24414 9.5495H9.48164C9.68864 9.5495 9.85364 9.38 9.88064 9.1745C10.0156 8.1905 10.6906 7.4735 11.8936 7.4735C12.9226 7.4735 13.8646 7.988 13.8646 9.2255C13.8646 10.178 13.3036 10.616 12.4171 11.282C11.4076 12.0155 10.6081 12.872 10.6651 14.2625L10.6696 14.588C10.6712 14.6864 10.7114 14.7803 10.7816 14.8493C10.8517 14.9183 10.9462 14.957 11.0446 14.957H12.2611C12.3606 14.957 12.456 14.9175 12.5263 14.8472C12.5966 14.7768 12.6361 14.6815 12.6361 14.582V14.4245C12.6361 13.3475 13.0456 13.034 14.1511 12.1955C15.0646 11.501 16.0171 10.73 16.0171 9.1115C16.0171 6.845 14.1031 5.75 12.0076 5.75C10.1071 5.75 8.02514 6.635 7.88264 9.179ZM10.2181 17.8235C10.2181 18.623 10.8556 19.214 11.7331 19.214C12.6466 19.214 13.2751 18.623 13.2751 17.8235C13.2751 16.9955 12.6451 16.4135 11.7316 16.4135C10.8556 16.4135 10.2181 16.9955 10.2181 17.8235Z" fill="#1F4827"/>
</g>
</svg>
