<svg width="28" height="30" viewBox="0 0 28 30" fill="none" xmlns="http://www.w3.org/2000/svg">
<g id="Group">
<path id="Vector" d="M26.2211 18.0667C26.2378 18.0428 26.2666 18.0063 26.293 17.9727L26.3021 17.9612C27.2858 16.719 27.5674 15.3003 27.1391 13.7453C26.8988 12.8738 26.3976 12.1189 25.6489 11.5016C25.8532 10.4258 25.6815 9.4359 25.1386 8.55771C25.4124 8.22294 25.6556 7.92173 25.882 7.63732C26.2115 7.2234 26.5026 6.85313 26.7717 6.50636C27.0671 6.12506 26.9165 5.83393 26.8004 5.69436C26.6172 5.47373 26.3506 5.47373 26.2633 5.47373C25.1923 5.47421 24.1318 5.47517 23.1102 5.47805C23.2642 4.95142 23.4186 4.4248 23.5735 3.89817L23.622 3.73414C23.8498 2.95907 24.0776 2.18447 24.3064 1.40988C24.3664 1.20652 24.3501 1.0329 24.2556 0.880377C24.1491 0.707713 23.9803 0.600757 23.7927 0.586848C23.5966 0.572459 23.4042 0.66071 23.2627 0.828578C23.0081 1.1317 22.7577 1.4449 22.516 1.74802L22.3649 1.93747C21.8488 2.58256 21.2996 3.2689 20.7572 3.95524C19.9049 3.46795 18.9869 3.30296 18.0291 3.46507C16.0804 3.79457 14.5648 5.59892 14.5777 7.57257C14.5916 9.62632 14.5883 11.7146 14.5854 13.7343C14.584 14.6062 14.583 15.4777 14.583 16.3497L14.5844 18.5914C14.5849 20.696 14.5854 22.8726 14.582 25.0131C14.5811 25.7043 14.666 26.2482 14.8492 26.7249C15.4722 28.3475 17.0329 29.3954 18.6795 29.3954C18.9509 29.3954 19.2253 29.3667 19.4977 29.3077C20.7414 29.0376 21.6848 28.3609 22.3025 27.2966C22.6632 26.675 22.8378 25.9829 22.8354 25.1819C23.2033 25.1417 23.562 25.0548 23.9016 24.9239C25.6863 24.2342 26.7064 22.898 26.9333 20.9517C27.0407 20.0294 26.8235 19.0974 26.2868 18.1823C26.2642 18.1454 26.2359 18.097 26.2211 18.0667ZM19.3519 22.8308C19.1255 22.8601 18.9504 22.9925 18.8588 23.203C18.7677 23.4121 18.8032 23.628 18.9586 23.8102C19.1322 24.0141 19.337 24.1714 19.5145 24.298C20.209 24.7935 20.8915 25.0779 21.6013 25.1671C21.6066 25.1676 21.6109 25.1685 21.6152 25.169C21.6152 25.1738 21.6157 25.1796 21.6157 25.1863C21.6157 25.888 21.4339 26.4769 21.0603 26.9873C20.5111 27.7369 19.6665 28.1705 18.7428 28.1767C18.7361 28.1767 18.7298 28.1767 18.7231 28.1767C17.8051 28.1767 16.961 27.7537 16.4046 27.0146C16.0008 26.4784 15.806 25.8769 15.8089 25.1762C15.8166 23.2505 15.8161 21.2927 15.8156 19.3991C15.8156 18.6759 15.8151 17.9526 15.8156 17.2293V16.6341V13.9405C15.8156 11.9232 15.8156 9.90641 15.8137 7.88912C15.8137 7.82197 15.8128 7.75482 15.8113 7.68768C15.8065 7.38024 15.8017 7.08959 15.8943 6.81812C16.2837 5.67805 16.9802 4.99315 18.0219 4.72456C18.2785 4.65837 18.5303 4.62528 18.7754 4.62528C19.196 4.62528 19.5989 4.72216 19.9792 4.91593C19.2258 5.85791 18.4636 6.8162 17.7264 7.74379L17.5912 7.91358C17.5317 7.98792 17.4708 8.06514 17.4176 8.15339C17.314 8.32558 17.2967 8.52366 17.3701 8.6968C17.4444 8.87187 17.6013 8.99897 17.8008 9.04501C17.9197 9.07235 18.0339 9.07235 18.1341 9.07235L21.1567 9.06947C20.7951 10.2369 20.4243 11.4897 19.9936 13.0014C19.9672 13.094 19.9466 13.177 19.9313 13.2542C19.8795 13.5122 19.9927 13.7626 20.2195 13.8926C20.445 14.0221 20.7222 13.988 20.9088 13.8091C21.0272 13.695 21.1337 13.5674 21.2306 13.446C22.0378 12.4383 22.844 11.4297 23.6503 10.4211L24.2086 9.72272C24.245 9.67764 24.2819 9.63159 24.3189 9.58507C24.4738 9.96253 24.5424 10.3573 24.5237 10.7611C24.4848 11.5976 24.151 12.3041 23.5309 12.8595C23.5131 12.8758 23.4944 12.8916 23.4762 12.9074C23.4354 12.9429 23.3932 12.9794 23.3515 13.0206C23.1217 13.2494 23.0963 13.5827 23.2901 13.8307C23.4915 14.0887 23.8316 14.1391 24.0992 13.9516C24.4513 13.7046 24.7549 13.3942 25.0019 13.0292C25.0695 12.929 25.1318 12.8254 25.1899 12.7232C25.799 13.4269 26.0892 14.1257 26.1002 14.9108C26.1093 15.5612 25.9808 16.141 25.7069 16.6835C25.6388 16.8183 25.5496 16.9435 25.4546 17.0758C25.4446 17.0902 25.434 17.1046 25.4239 17.1185C25.0196 16.7305 24.5405 16.4259 23.9975 16.2125C23.4325 15.9904 22.8531 15.8825 22.2757 15.8931C22.0009 15.8979 21.7956 16.048 21.7116 16.3051C21.632 16.5487 21.7145 16.8178 21.916 16.9751C22.0771 17.1008 22.2575 17.1113 22.4148 17.1118C22.7558 17.1123 23.1049 17.1861 23.5131 17.3439C24.7558 17.8245 25.4882 18.7464 25.6901 20.084C25.8575 21.192 25.5424 22.1781 24.7798 22.9359C23.7582 23.9508 22.5548 24.2534 21.2028 23.8352C20.7452 23.6937 20.3169 23.44 19.8939 23.0601L19.8857 23.0529C19.7682 22.9455 19.6047 22.7987 19.3519 22.8308ZM22.0311 4.85981L21.7582 5.77158C21.7409 5.83009 21.726 5.88717 21.7145 5.94137C21.6776 6.11883 21.7107 6.29293 21.8085 6.4325C21.9044 6.56967 22.0536 6.6584 22.2277 6.68334C22.3476 6.70061 22.4637 6.70013 22.5764 6.70013H22.6153C23.0052 6.70013 23.3951 6.70013 23.7846 6.70013C24.2129 6.70013 24.6407 6.69965 25.069 6.70013C24.81 7.0234 24.5505 7.34618 24.2911 7.66897C23.5237 8.6239 22.7347 9.60521 21.962 10.5904C22.0061 10.4393 22.0503 10.2882 22.0939 10.1371C22.2292 9.66996 22.3692 9.18698 22.5203 8.71791C22.5941 8.48865 22.5692 8.2733 22.4498 8.11118C22.3275 7.94475 22.116 7.84979 21.8685 7.84979C21.8651 7.84979 21.8618 7.84979 21.8589 7.84979C21.1169 7.85746 20.3615 7.8565 19.6315 7.85555C19.4823 7.85555 19.3332 7.85506 19.1845 7.85506C19.8066 7.08047 20.4286 6.30636 21.0517 5.53273L21.1174 5.45119C21.5054 4.96965 21.9021 4.4766 22.2939 3.97971C22.2066 4.27276 22.1188 4.56628 22.0311 4.85981Z" fill="#1F4827"/>
<path id="Vector_2" d="M13.4095 18.9986L13.4099 16.4374L13.4071 16.2274V14.2101C13.4066 12.0575 13.4066 9.83159 13.409 7.64211C13.4095 7.04786 13.3169 6.53466 13.1251 6.07326C12.4661 4.48859 11.291 3.59984 9.63291 3.43149C8.46503 3.31303 7.40506 3.67994 6.48322 4.52216C5.84341 5.10682 5.43189 5.84352 5.25922 6.71308C4.5983 6.89678 4.00069 7.25122 3.4827 7.76585C2.45822 8.7841 2.07548 10.0398 2.34455 11.4992C2.34263 11.5012 2.33976 11.5031 2.33736 11.5055C1.3407 12.3362 0.784816 13.3803 0.685055 14.6096C0.57618 15.9521 0.946928 17.1128 1.78723 18.0605C0.608794 19.8874 0.839973 22.1958 2.36374 23.8083C3.10188 24.5891 4.04242 25.052 5.16042 25.1848C5.1609 25.3004 5.17049 25.4131 5.17913 25.5234L5.18392 25.5805C5.29616 26.9944 5.96715 28.0789 7.17916 28.8036C7.86022 29.2108 8.56527 29.4146 9.27272 29.4146C9.94371 29.4146 10.6166 29.2314 11.2751 28.865C12.6944 28.0746 13.4128 26.828 13.4114 25.1608C13.4085 23.1066 13.409 21.0529 13.4095 18.9986ZM12.1797 18.7444C12.1802 20.9517 12.1802 23.2337 12.1778 25.4784C12.1773 25.9613 12.0109 26.4366 11.6833 26.8913C11.2042 27.5561 10.5845 27.9714 9.84155 28.1259C9.07799 28.2846 8.26167 28.1067 7.60171 27.6386C6.94318 27.1709 6.50721 26.4611 6.40553 25.6903C6.39258 25.5901 6.39161 25.487 6.39114 25.3776C6.39066 25.3081 6.39018 25.2371 6.38634 25.1642C6.85589 25.0985 7.31153 24.9589 7.7408 24.7498C8.21323 24.5196 8.62906 24.2261 8.97775 23.8769C9.14849 23.7061 9.21612 23.4783 9.15856 23.2682C9.10197 23.0611 8.93266 22.9028 8.7058 22.8438C8.52114 22.7963 8.34225 22.8452 8.1739 22.9896L8.1667 22.9958C7.96622 23.168 7.77629 23.3311 7.5643 23.4639C6.31728 24.2433 4.86306 24.193 3.67503 23.3301C2.70235 22.6236 2.22896 21.6418 2.26781 20.4116C2.29995 19.3924 2.71914 18.5483 3.51339 17.9017C4.14937 17.3842 4.83524 17.12 5.55227 17.1161C5.62805 17.1156 5.70527 17.1099 5.78153 17.0989C6.11104 17.0514 6.33118 16.7991 6.31631 16.4849C6.30097 16.1636 6.04581 15.9118 5.72302 15.8993C5.27793 15.882 4.82085 15.9449 4.36425 16.0859C3.64241 16.3084 3.05487 16.647 2.57285 17.119C2.11913 16.5123 1.89514 15.8197 1.88939 15.0048C1.88363 14.1808 2.18388 13.4336 2.80739 12.7242C3.0966 13.2177 3.45584 13.6249 3.87599 13.9357C4.04338 14.0595 4.2477 14.093 4.43619 14.0283C4.6218 13.9645 4.75898 13.8163 4.8127 13.6221C4.87744 13.3885 4.79975 13.1631 4.59399 12.9866C4.3748 12.7985 4.20165 12.6163 4.06448 12.4292C3.44577 11.5841 3.3014 10.6705 3.63474 9.71361C3.97431 8.73949 5.00454 7.71549 6.46452 7.77161C7.19307 7.79895 7.80315 8.04164 8.32882 8.51263L8.34081 8.52366C8.40028 8.5769 8.46167 8.63205 8.53122 8.68337C8.7835 8.86803 9.09717 8.84453 9.31252 8.62534C9.54226 8.39128 9.55186 8.06898 9.3365 7.82389C8.98494 7.4234 8.56719 7.12124 8.0938 6.92507C7.68564 6.75577 7.14942 6.56631 6.54701 6.55672C6.71248 6.13465 6.91249 5.80995 7.16957 5.5428C7.73792 4.95238 8.43337 4.65501 9.29574 4.63295C10.5591 4.60178 11.8876 5.68669 12.1399 6.95625C12.1711 7.11261 12.1859 7.25314 12.1859 7.38551C12.1864 9.82056 12.1864 12.2561 12.1864 14.6911V16.2H12.1816L12.1797 18.7444Z" fill="#1F4827"/>
</g>
</svg>
