<svg width="30" height="20" viewBox="0 0 30 20" fill="none" xmlns="http://www.w3.org/2000/svg">
<g id="Group">
<g id="Group_2">
<path id="Vector" d="M15.0026 0.324835C16.3841 0.326686 17.7352 0.532613 19.0637 0.90965C20.17 1.22335 21.2174 1.67261 22.2059 2.25409C23.0207 2.73335 23.79 3.2815 24.5104 3.89558C25.7126 4.92002 26.7515 6.08521 27.5944 7.42409C27.8111 7.76817 27.8052 8.08521 27.5978 8.42632C26.9063 9.56595 26.0459 10.5626 25.0807 11.4778C23.7778 12.7134 22.3126 13.6985 20.6533 14.3848C19.4344 14.8889 18.167 15.2174 16.8559 15.3852C16.0478 15.4885 15.2389 15.5226 14.427 15.4989C13.4722 15.4711 12.5318 15.3222 11.6 15.1167C10.1663 14.8 8.83888 14.2215 7.56925 13.4956C6.55148 12.9137 5.63999 12.1922 4.7937 11.3882C3.88481 10.5248 3.1037 9.55521 2.42814 8.49817C2.27481 8.25817 2.22777 8.01224 2.24814 7.74076C2.25481 7.6515 2.29518 7.57446 2.33888 7.4978C2.61814 7.00854 2.96481 6.56632 3.30814 6.12224C3.87222 5.39224 4.50407 4.72409 5.19888 4.11928C6.18407 3.26187 7.24296 2.5078 8.41185 1.91632C9.34814 1.44224 10.3137 1.04298 11.3356 0.78965C12.54 0.491132 13.7604 0.323723 15.0026 0.324835ZM15.3341 14.0111C15.7263 14.02 16.4474 13.9504 17.1637 13.8445C17.9289 13.7311 18.6744 13.5337 19.4044 13.2708C20.7107 12.8 21.9141 12.1408 23.0115 11.2978C24.093 10.4667 25.0278 9.48595 25.8418 8.39113C25.8959 8.31817 25.8967 8.29039 25.8011 8.25965C25.3815 8.12558 24.9585 8.00372 24.5337 7.88854C23.433 7.59002 22.3085 7.40928 21.1874 7.21113C21.0541 7.18743 21.0189 7.21483 20.9996 7.34483C20.913 7.93595 20.7341 8.50187 20.4863 9.04484C20.0967 9.89891 19.5026 10.5963 18.7781 11.1789C17.4748 12.2263 15.9685 12.6334 14.3189 12.4708C13.1111 12.3519 12.0226 11.8922 11.097 11.1C9.96296 10.1293 9.22444 8.92113 8.98629 7.42965C8.9474 7.18483 8.94333 7.18632 8.70444 7.22298C7.60703 7.39076 6.51962 7.60854 5.44518 7.88891C5.01888 8.00002 4.59703 8.12521 4.17851 8.26187C4.09111 8.29039 4.07296 8.31558 4.13962 8.39113C4.22185 8.48446 4.29111 8.58928 4.36814 8.68706C5.48925 10.1126 6.79074 11.333 8.37222 12.2434C8.97518 12.5904 9.59148 12.9052 10.2396 13.1571C11.7704 13.7519 13.3641 13.9974 15.3341 14.0111ZM4.95666 6.45002C5.04888 6.48076 5.10814 6.45076 5.16666 6.4352C5.88518 6.24372 6.60925 6.07595 7.34073 5.94076C8.53962 5.71891 9.74703 5.56187 10.9604 5.44817C12.0381 5.34706 13.1189 5.29298 14.2011 5.27817C16.2337 5.25039 18.2611 5.3315 20.2804 5.58632C21.4156 5.72965 22.5418 5.91669 23.66 6.15706C24.0785 6.24706 24.4941 6.34854 24.9078 6.45632C24.9341 6.46335 24.9655 6.48706 24.9852 6.45372C24.9993 6.43002 24.9744 6.4078 24.9589 6.38891C24.9485 6.37595 24.9374 6.36372 24.9259 6.35113C23.4459 4.73484 21.7107 3.48187 19.6637 2.67743C18.5781 2.25076 17.4515 1.99817 16.2889 1.88965C15.21 1.78891 14.1348 1.80669 13.0641 1.95595C11.4226 2.18521 9.89111 2.73928 8.45925 3.57039C7.3437 4.21743 6.34555 5.0152 5.44259 5.93372C5.28111 6.09817 5.12592 6.26965 4.95666 6.45002ZM15.0081 11.01C15.3248 11.0074 15.6415 10.9911 15.9504 10.9197C16.8733 10.7063 17.6633 10.2582 18.3274 9.57965C19.0007 8.8915 19.3589 8.05446 19.5359 7.12446C19.5541 7.03002 19.5222 6.99965 19.4326 6.99224C19.0307 6.95965 18.6289 6.92187 18.227 6.8878C18.047 6.87261 18.0511 6.87558 18.007 7.0578C17.733 8.19039 17.0641 8.98298 15.9481 9.34595C14.9174 9.68113 13.9456 9.51743 13.0874 8.84669C12.4733 8.36669 12.0863 7.73113 11.9459 6.9578C11.9318 6.88076 11.9081 6.86595 11.8341 6.87372C11.433 6.91558 11.0311 6.95372 10.6296 6.98928C10.4237 7.0078 10.4193 7.01187 10.4544 7.22224C10.5107 7.55558 10.6126 7.87409 10.7426 8.18632C11.4389 9.86039 13.127 11.0341 15.0081 11.01ZM14.9833 6.79187C14.5052 6.79187 14.0267 6.79372 13.5485 6.79039C13.4496 6.78965 13.4252 6.81187 13.4611 6.91113C13.6444 7.41595 13.9878 7.75854 14.4907 7.94113C15.2837 8.22891 16.1789 7.78483 16.4967 6.94854C16.5511 6.80483 16.5459 6.79298 16.3933 6.79224C15.923 6.79039 15.4533 6.79187 14.9833 6.79187Z" fill="#1F4827"/>
</g>
<g id="Group_3">
<path id="Vector_2" d="M15.1905 19.6737C12.2994 19.6648 9.7872 19.0885 7.41757 17.9085C5.48461 16.946 3.80091 15.6556 2.34757 14.0582C1.51646 13.1445 0.782387 12.1626 0.156091 11.0985C0.0916467 10.9889 0.0831282 10.9326 0.216832 10.8671C0.657943 10.6508 1.09313 10.4215 1.52683 10.1911C1.61424 10.1448 1.64905 10.1774 1.6872 10.2471C1.87831 10.5978 2.11165 10.9215 2.33942 11.2478C3.4935 12.8997 4.90128 14.2948 6.58053 15.4115C7.84202 16.2504 9.20053 16.8811 10.6568 17.3034C11.5142 17.5519 12.3865 17.7122 13.2731 17.8093C14.3735 17.9293 15.4757 17.9356 16.5753 17.8326C18.865 17.6182 20.9883 16.8937 22.9446 15.6852C24.4876 14.7322 25.8183 13.5385 26.9731 12.143C27.4509 11.5652 27.8905 10.9619 28.2579 10.3082C28.3261 10.1867 28.3831 10.1682 28.5098 10.2345C28.9357 10.4585 29.3683 10.6708 29.8009 10.8822C29.9005 10.9308 29.9105 10.9708 29.8535 11.07C29.272 12.0867 28.5887 13.0308 27.7979 13.8919C26.7328 15.0519 25.5613 16.0889 24.2376 16.9552C22.3894 18.1652 20.3798 18.9585 18.2161 19.3667C17.1368 19.5708 16.0461 19.6897 15.1905 19.6737Z" fill="#1F4827"/>
</g>
</g>
</svg>
