<svg width="28" height="28" viewBox="0 0 28 28" fill="none" xmlns="http://www.w3.org/2000/svg">
<g id="Group">
<path id="Vector" d="M27.1214 12.3926C26.9472 11.7241 26.7008 11.2382 26.3455 10.8627C26.064 10.5653 25.7285 10.408 25.3758 10.408C25.0185 10.408 24.6786 10.5678 24.3916 10.8706C24.116 11.1615 23.9072 11.5272 23.7528 11.9883C23.7326 12.0487 23.7177 12.0586 23.6559 12.0566C23.5084 12.0512 23.3347 12.0472 23.1611 12.0591C23.0928 12.0635 23.0789 12.0586 23.0596 11.9809C22.9048 11.3585 22.6984 10.6272 22.3377 9.92406C22.1532 9.56484 21.9879 9.27489 21.8172 9.01166C21.7796 8.95377 21.7816 8.93844 21.8316 8.8944C21.9696 8.77367 22.0983 8.63711 22.2116 8.51638C22.2442 8.48174 22.2521 8.47828 22.3026 8.50302C22.7118 8.70737 23.0676 8.8187 23.4223 8.85383C24.1556 8.92705 24.7884 8.5045 24.926 7.84891C24.9972 7.50948 24.9601 7.14927 24.8087 6.71484C24.4663 5.73813 23.8464 4.88412 22.9112 4.10433C22.2051 3.51602 21.4798 3.17016 20.6931 3.04745C20.2759 2.98264 19.8831 3.08555 19.5877 3.33789C19.2958 3.58677 19.1345 3.95193 19.133 4.36558C19.1315 4.8005 19.2438 5.22503 19.4759 5.66391C19.508 5.72427 19.5011 5.74505 19.4615 5.78464C19.3373 5.90883 19.2171 6.03995 19.1008 6.16662L19.0776 6.19185C19.0513 6.22055 19.0479 6.22055 19.0167 6.20026C18.896 6.12159 18.7713 6.04589 18.6506 5.97266L18.5531 5.91378C17.7441 5.42146 16.8614 5.15229 16.0287 4.93409C15.9435 4.91182 15.9371 4.8955 15.9421 4.82227C15.953 4.66295 15.953 4.50956 15.9426 4.36656C15.9366 4.28492 15.9534 4.26167 16.0381 4.23446C16.4631 4.09789 16.846 3.86683 17.1766 3.54719C17.6565 3.08357 17.7169 2.43193 17.3295 1.88667C17.1023 1.56753 16.7956 1.32558 16.3918 1.14745C15.6699 0.828808 14.8773 0.675918 13.8976 0.665527H13.8971C13.8941 0.665527 13.8912 0.665527 13.8882 0.665527C13.3518 0.665527 12.6265 0.783288 12.0797 0.959433C11.6428 1.09995 11.2792 1.29342 10.9684 1.55021C10.629 1.83126 10.434 2.19097 10.4192 2.56404C10.4049 2.93711 10.5711 3.31118 10.8878 3.61795C11.1609 3.88217 11.5023 4.07711 11.9936 4.2493C12.0535 4.27058 12.0624 4.28295 12.0594 4.34677C12.0515 4.53479 12.052 4.68769 12.0614 4.82821C12.0664 4.90341 12.0535 4.92024 11.9738 4.93854C10.8353 5.20622 9.86108 5.61789 8.9952 6.19729C8.9566 6.22302 8.95314 6.22104 8.92444 6.18987C8.81311 6.06914 8.68645 5.93258 8.55087 5.8074C8.50634 5.76633 8.49892 5.74802 8.53108 5.67677C8.75374 5.1899 8.85765 4.77625 8.85765 4.37498C8.85765 3.60013 8.31585 3.05883 7.54051 3.05834C7.54002 3.05834 7.53952 3.05834 7.53952 3.05834C7.20603 3.05834 6.87749 3.12217 6.5628 3.24834C5.48168 3.68079 4.5871 4.41604 3.8276 5.49568C3.37635 6.13693 3.12846 6.71336 3.04731 7.31008C2.98546 7.76479 3.11609 8.19526 3.40604 8.49213C3.69648 8.7895 4.10715 8.92508 4.56137 8.87411C4.91713 8.83403 5.28377 8.72172 5.68257 8.53073C5.74046 8.50302 5.75728 8.50797 5.79142 8.54409C5.9176 8.67471 6.05069 8.79643 6.19913 8.93052C6.21694 8.94635 6.22041 8.95377 6.2209 8.95377C6.2209 8.95526 6.21892 8.96416 6.20507 8.98544C5.58707 9.92257 5.15859 10.9374 4.93148 12.0022C4.92109 12.0512 4.91218 12.0586 4.8627 12.0576C4.67369 12.0536 4.49012 12.0536 4.31645 12.0576C4.27637 12.0586 4.2734 12.0586 4.25559 12.0076C4.05916 11.4431 3.82166 11.0581 3.4857 10.7593C2.9627 10.2942 2.27098 10.2952 1.76382 10.7622C1.40559 11.0923 1.1389 11.5306 0.971167 12.0645C0.614423 13.2006 0.570881 14.35 0.841037 15.482C0.951375 15.9447 1.13197 16.5384 1.55007 17.0288C1.89395 17.432 2.26851 17.6121 2.69502 17.5795C3.05424 17.5523 3.36843 17.3811 3.6846 17.0416C3.92507 16.7829 4.10122 16.4523 4.23877 16.0021C4.25708 15.9417 4.26895 15.9328 4.32981 15.9363C4.44114 15.9422 4.55296 15.9402 4.66132 15.9387C4.7009 15.9382 4.73999 15.9373 4.77957 15.9373C4.83944 15.9368 4.90723 15.9363 4.91812 15.9452C4.92851 15.9531 4.94385 16.0169 4.9577 16.0733L4.95918 16.0802C5.13582 16.8125 5.35601 17.4429 5.6321 18.007C5.77262 18.2939 5.93986 18.5913 6.17489 18.9698L6.18181 18.9807C6.22486 19.0495 6.22338 19.0544 6.1922 19.0831C6.05713 19.2083 5.9265 19.3414 5.79983 19.4701L5.77361 19.4968C5.75134 19.5195 5.74838 19.521 5.71819 19.5037C5.5465 19.4048 5.36392 19.3389 5.19223 19.283C4.88744 19.1836 4.48122 19.0812 4.04531 19.1727C3.48273 19.2909 3.07947 19.8164 3.06463 20.4502C3.05028 21.0519 3.28432 21.567 3.51489 21.9915C3.95377 22.7995 4.54752 23.4863 5.27882 24.033C5.98736 24.563 6.64049 24.8559 7.33319 24.9548C7.77108 25.0177 8.19265 24.8885 8.48952 24.6006C8.78837 24.3111 8.93137 23.89 8.88189 23.4462C8.84231 23.0909 8.73147 22.7327 8.54296 22.3522C8.50832 22.2825 8.51624 22.2557 8.55632 22.2147C8.69238 22.0766 8.80421 21.9584 8.9091 21.8312C8.95017 21.7817 8.95908 21.7773 9.01895 21.8174C9.35293 22.038 9.72452 22.2434 10.1233 22.4274C10.7448 22.7139 11.343 22.9168 11.9511 23.0479C12.055 23.0702 12.0728 23.0909 12.0624 23.1775C12.0466 23.3116 12.0461 23.4571 12.0609 23.6105C12.0703 23.706 12.0481 23.7376 11.9471 23.7708C11.4944 23.9207 11.1352 24.133 10.8492 24.419C10.5592 24.7094 10.4098 25.0508 10.4162 25.4066C10.4227 25.7633 10.5855 26.0998 10.8868 26.3798C11.1134 26.5906 11.3855 26.7608 11.6948 26.8865C12.4315 27.1844 13.1915 27.3338 13.9693 27.3338C14.6576 27.3338 15.3602 27.217 16.0717 26.983C16.4873 26.8464 16.8416 26.6391 17.1246 26.3675C17.706 25.8083 17.7352 25.0864 17.2018 24.4838C16.9198 24.1651 16.5521 23.9395 16.0094 23.752C15.9465 23.7302 15.9406 23.7169 15.9421 23.6674C15.948 23.4952 15.948 23.32 15.9416 23.1469C15.9396 23.0919 15.948 23.0815 16.0024 23.0717C16.0974 23.0543 16.1984 23.0301 16.3196 22.9959C17.3319 22.7114 18.2042 22.326 18.987 21.8174C19.0469 21.7788 19.0558 21.7822 19.1003 21.8322L19.1048 21.8371C19.2121 21.9569 19.3235 22.0806 19.4506 22.1855C19.5145 22.2384 19.5179 22.2632 19.4714 22.3507C19.3052 22.6649 19.1963 23.0103 19.1468 23.3779C19.0414 24.1627 19.4887 24.8148 20.2106 24.9281C20.6263 24.9934 21.0602 24.9271 21.501 24.7307C22.5015 24.2854 23.3461 23.6154 24.0106 22.7392C24.4579 22.1494 24.7474 21.5759 24.8953 20.9861C25.0002 20.5685 24.976 20.1855 24.8236 19.8486C24.5984 19.3503 24.0611 19.0817 23.4208 19.147C23.0596 19.1841 22.7009 19.2914 22.3239 19.476C22.2615 19.5067 22.2413 19.4993 22.2032 19.4592C22.0725 19.3196 21.937 19.1905 21.833 19.094C21.7855 19.0495 21.7806 19.0381 21.8187 18.9773C22.125 18.4914 22.4684 17.905 22.6955 17.241C22.8207 16.8744 22.9622 16.4395 23.0616 15.9937C23.074 15.9377 23.0804 15.9328 23.1368 15.9353C23.3001 15.9422 23.4659 15.9397 23.6257 15.9377L23.6841 15.9368C23.7286 15.9363 23.7301 15.9363 23.7454 15.9833C23.9077 16.4875 24.1234 16.861 24.4238 17.1589C24.9953 17.7254 25.7399 17.7309 26.3208 17.1732C26.5682 16.9357 26.7562 16.6374 26.9116 16.2351C27.3915 14.9927 27.4623 13.7003 27.1214 12.3926ZM25.5737 16.4429C25.4208 16.583 25.3243 16.5835 25.1749 16.4449C24.9329 16.2203 24.8107 15.911 24.7152 15.6389C24.6949 15.5815 24.6786 15.5236 24.6613 15.4628C24.6469 15.4123 24.6321 15.3598 24.6148 15.3079C24.5242 15.0343 24.357 14.9096 24.0725 14.9041C23.9334 14.9012 23.789 14.9002 23.6311 14.9002C23.5203 14.9002 23.403 14.9007 23.2768 14.9022C23.2595 14.9026 23.2482 14.9017 23.2412 14.9012C23.2412 14.8962 23.2412 14.8888 23.2427 14.8789C23.307 14.3163 23.306 13.7315 23.2397 13.1397C23.2348 13.0972 23.2402 13.0843 23.2392 13.0843C23.2412 13.0833 23.2531 13.0774 23.2966 13.0784C23.5559 13.0858 23.8102 13.0917 24.066 13.0843C24.3862 13.0749 24.5445 12.9492 24.6306 12.6355C24.6949 12.402 24.7795 12.1288 24.9201 11.8745C25.0116 11.7088 25.1086 11.592 25.2258 11.5064C25.3382 11.4243 25.4069 11.4238 25.5212 11.5054C25.6751 11.6153 25.7726 11.7771 25.8542 11.9359C26.1016 12.4134 26.2357 12.9408 26.2644 13.5494L26.2842 13.964C26.2713 14.541 26.2139 15.292 25.8859 15.9892C25.7899 16.1926 25.6934 16.3331 25.5737 16.4429ZM21.1087 18.1608C21.0859 18.2014 21.0557 18.2554 21.0384 18.2761C21.0152 18.2623 20.9696 18.2222 20.9286 18.1866C20.8979 18.1594 20.8672 18.1317 20.837 18.1035C20.7752 18.0466 20.7114 17.9877 20.6421 17.9352C20.417 17.7655 20.1414 17.7912 19.9558 18.0005C19.7737 18.2054 19.7831 18.4775 19.9791 18.6774C20.2725 18.9763 20.5738 19.2776 20.8652 19.5685C21.0058 19.709 21.1463 19.8496 21.2868 19.9901C21.3482 20.0514 21.4085 20.1133 21.4694 20.1751C21.552 20.2593 21.6341 20.3434 21.7183 20.4265C22.0052 20.71 22.17 20.7323 22.5193 20.5334C22.7573 20.3978 23.0171 20.2657 23.3036 20.2167C23.3229 20.2132 23.3427 20.2098 23.362 20.2063C23.4931 20.1826 23.6168 20.1603 23.74 20.1934C23.8379 20.2202 23.8879 20.2756 23.9023 20.374C23.9414 20.6467 23.8607 20.9059 23.7766 21.1242C23.5787 21.6377 23.2501 22.1132 22.7415 22.6214C22.122 23.2409 21.5436 23.6248 20.9221 23.8307C20.7356 23.892 20.5664 23.9158 20.4041 23.9024C20.2398 23.889 20.1849 23.8336 20.178 23.6743C20.1676 23.4373 20.2156 23.1953 20.3244 22.9346C20.3833 22.7936 20.4575 22.6545 20.5293 22.5205L20.5372 22.5056C20.7217 22.1598 20.6995 21.9999 20.4278 21.7268C20.1532 21.4507 19.8776 21.1751 19.6025 20.899C19.412 20.708 19.2215 20.5175 19.031 20.3265C18.99 20.2855 18.9499 20.2434 18.9098 20.2014C18.8386 20.1267 18.7644 20.0495 18.6862 19.9777C18.4492 19.76 18.1538 19.758 17.9504 19.9733C17.7589 20.1761 17.7728 20.474 17.9846 20.6981C18.0761 20.7951 18.1686 20.8857 18.2725 20.9876C18.2889 21.0034 18.3052 21.0193 18.3176 21.0326C18.3032 21.0415 18.2849 21.0519 18.2691 21.0613C17.6303 21.4329 17.0266 21.7026 16.423 21.8851C14.5047 22.465 12.5824 22.3562 10.7101 21.5625C10.4058 21.4334 10.111 21.2657 9.82595 21.1029L9.72105 21.043C9.71462 21.039 9.70918 21.0361 9.70473 21.0331C9.7077 21.0301 9.71165 21.0262 9.71611 21.0217C9.82595 20.9173 9.93678 20.7996 10.0456 20.6709C10.2371 20.4438 10.2262 20.1435 10.0199 19.9569C9.80121 19.7595 9.52908 19.7724 9.30939 19.9906C8.6721 20.6244 8.05608 21.2429 7.53804 21.7644C7.31241 21.9915 7.28619 22.1647 7.43364 22.4502L7.47767 22.5348C7.60533 22.7802 7.72606 23.0118 7.78494 23.274C7.80819 23.3769 7.83392 23.5135 7.8265 23.6535C7.8166 23.8455 7.73843 23.9217 7.54793 23.9237C7.26194 23.9276 6.97397 23.8485 6.6672 23.6822C5.73947 23.18 5.00322 22.4893 4.47825 21.6288C4.2546 21.2622 4.12942 20.9158 4.09577 20.5705C4.09132 20.5259 4.09132 20.4789 4.09528 20.4309C4.11012 20.2474 4.18236 20.1791 4.36098 20.1791C4.67468 20.1791 4.96215 20.2875 5.22588 20.4042C5.29663 20.4359 5.36788 20.4735 5.43666 20.5101C5.48812 20.5373 5.54155 20.566 5.59549 20.5923C5.83645 20.709 6.01705 20.6813 6.20012 20.5007C6.84978 19.8585 7.4465 19.2632 8.02442 18.6804C8.22481 18.4785 8.22283 18.1831 8.02095 17.9783C7.82304 17.7779 7.53507 17.7749 7.31983 17.9708L7.28916 17.9991C7.18871 18.0901 7.08481 18.1846 6.99673 18.292C6.98239 18.3098 6.972 18.3197 6.96507 18.3251C6.95814 18.3167 6.94775 18.3019 6.93142 18.2747C6.80228 18.0564 6.67759 17.8155 6.53905 17.5161C6.16598 16.7101 5.93887 15.9773 5.84536 15.2757C5.65635 13.8562 5.75827 12.6043 6.15757 11.4485C6.37429 10.8206 6.62564 10.2669 6.92598 9.75583C6.93835 9.73505 6.95319 9.70932 6.96507 9.69151C6.97942 9.70437 6.99871 9.72367 7.01801 9.74297C7.12192 9.84588 7.22434 9.94633 7.3322 10.0438C7.56327 10.2526 7.8359 10.2566 8.04322 10.0547C8.25598 9.84737 8.25746 9.54851 8.04718 9.32784C7.78642 9.05422 7.50093 8.76872 7.14913 8.4293C6.86562 8.15568 6.56528 7.86424 6.27929 7.56984C6.01012 7.29276 5.8226 7.26604 5.47624 7.45604C5.18283 7.61685 4.89189 7.76479 4.56088 7.81526C4.36791 7.84495 4.23184 7.82169 4.15614 7.74698C4.08093 7.67276 4.05718 7.53818 4.08439 7.34719C4.13981 6.96125 4.31991 6.63518 4.48814 6.3675C5.11405 5.37297 5.87801 4.67977 6.82405 4.24979C7.08085 4.13302 7.29658 4.0781 7.50241 4.07761C7.61869 4.07464 7.70033 4.10136 7.74981 4.15084C7.80028 4.20131 7.82403 4.28443 7.82304 4.40466C7.82056 4.72578 7.69835 5.01821 7.56723 5.28638C7.53952 5.34279 7.50835 5.39919 7.47817 5.45412L7.45046 5.50409C7.27877 5.81828 7.30252 5.99245 7.55288 6.25024C7.68994 6.39125 7.83095 6.53177 7.96702 6.66833C8.03184 6.73315 8.09715 6.79846 8.16197 6.86328L8.4816 7.1849C8.7285 7.43328 8.97541 7.68167 9.2228 7.93005L9.22676 7.93401C9.27525 7.9825 9.32522 8.03297 9.38064 8.07849C9.59142 8.25117 9.87048 8.23732 10.059 8.04484C10.2445 7.85583 10.2559 7.57479 10.0857 7.37638C9.97488 7.24724 9.84525 7.11513 9.68939 6.97313C9.68593 6.97016 9.68296 6.96719 9.68048 6.96471C9.68444 6.96224 9.68889 6.95977 9.69384 6.9568C10.6379 6.40263 11.5409 6.05232 12.4543 5.88557C12.9412 5.79651 13.4355 5.75149 13.9233 5.75149C13.9273 5.75149 13.9312 5.75149 13.9352 5.75149H13.9357C15.4547 5.7406 16.9114 6.14287 18.2646 6.94839C18.2809 6.95828 18.2913 6.9657 18.2978 6.97065C18.2928 6.97708 18.2844 6.98649 18.2701 6.99935C18.1444 7.11661 18.0296 7.24724 17.9316 7.36055C17.7451 7.57628 17.7515 7.85385 17.9479 8.05078C18.1473 8.25068 18.4244 8.26255 18.6377 8.08047C18.7663 7.97062 18.8876 7.84891 19.0043 7.73164L19.0642 7.67177C19.5085 7.22695 19.9815 6.75344 20.4491 6.27943C20.7153 6.00977 20.7376 5.84451 20.5525 5.51102C20.3724 5.18693 20.1968 4.83612 20.1963 4.42347C20.1958 4.15529 20.2527 4.0969 20.5154 4.09591C20.7257 4.09641 20.9375 4.14836 21.1651 4.2587C22.3882 4.85146 23.2348 5.69459 23.7533 6.83706C23.833 7.01221 23.8859 7.20667 23.9151 7.43081C23.926 7.51641 23.924 7.58716 23.9087 7.65346C23.8785 7.78409 23.8409 7.81773 23.7078 7.83258C23.3689 7.87018 23.0577 7.74896 22.7974 7.62576C22.6935 7.57628 22.5896 7.51987 22.4896 7.46544L22.4075 7.42091C22.2096 7.31404 22.0117 7.33927 21.8355 7.49414C21.7484 7.57083 21.6653 7.65297 21.5847 7.73312L21.5406 7.77667C21.2833 8.03049 21.0265 8.28482 20.7697 8.53864C20.505 8.80039 20.2408 9.06213 19.9761 9.32338C19.8138 9.4837 19.7628 9.66182 19.8247 9.85232C19.8801 10.0225 20.0048 10.1462 20.1671 10.1922C20.3264 10.2373 20.4941 10.1982 20.6267 10.0854C20.7648 9.9676 20.8979 9.83747 21.0211 9.69745C21.0285 9.68903 21.035 9.6826 21.0399 9.67815C21.0448 9.68507 21.0513 9.69497 21.0597 9.70883C21.2843 10.0745 21.4852 10.4921 21.6732 10.9854C22.6015 13.4123 22.4115 15.8274 21.1087 18.1608ZM15.4022 3.35472C15.374 3.36214 15.3458 3.36907 15.3181 3.37847C15.0435 3.46703 14.9144 3.64318 14.9104 3.93313L14.9079 4.09443C14.905 4.29729 14.902 4.50758 14.905 4.7144C14.9055 4.73419 14.9045 4.74607 14.9035 4.753C14.8976 4.75349 14.8872 4.75349 14.8718 4.75151C14.5918 4.72133 14.3043 4.70649 14.0114 4.70649C13.7195 4.70649 13.4221 4.72133 13.1208 4.75102C13.1054 4.7525 13.0955 4.7525 13.0891 4.7525C13.0881 4.74558 13.0876 4.7337 13.0881 4.7144C13.0945 4.46305 13.0906 4.20823 13.0866 3.96133L13.0861 3.91828C13.0817 3.62685 12.9511 3.46011 12.6626 3.37748C12.3118 3.27703 12.0253 3.17362 11.7675 2.99797C11.6661 2.9287 11.5854 2.86636 11.5226 2.7862C11.4226 2.65953 11.4251 2.56404 11.5325 2.44529C11.6601 2.30378 11.8259 2.18998 12.0535 2.08706C12.7363 1.77881 13.4696 1.72636 14.0327 1.71498C14.6982 1.74318 15.2954 1.78722 15.8619 2.04055C16.1019 2.14792 16.2686 2.25282 16.4022 2.38146C16.4947 2.47053 16.5398 2.54821 16.5393 2.61896C16.5393 2.68972 16.4943 2.76641 16.4022 2.85399C16.1182 3.12464 15.7639 3.2518 15.4542 3.34037C15.4369 3.34581 15.4196 3.35026 15.4022 3.35472ZM12.5676 24.6515C12.5993 24.6431 12.6309 24.6342 12.6621 24.6243C12.9639 24.5298 13.096 24.3452 13.0911 24.0256C13.0891 23.9153 13.0891 23.8044 13.0891 23.6941C13.0891 23.5516 13.0886 23.4046 13.0846 23.2597C13.0842 23.2493 13.0846 23.2424 13.0851 23.2369C13.0901 23.2369 13.097 23.2374 13.1069 23.2384C13.6769 23.3057 14.2806 23.3067 14.901 23.2419C14.903 23.2419 14.9045 23.2414 14.906 23.2414C14.906 23.2438 14.906 23.2473 14.906 23.2508C14.9045 23.3858 14.9045 23.5209 14.905 23.6555C14.905 23.7619 14.9055 23.8678 14.905 23.9741C14.9025 24.3645 15.0267 24.5328 15.3963 24.6401C15.7075 24.7302 15.9846 24.8193 16.2256 24.9924C16.3265 25.0647 16.4007 25.1315 16.4591 25.2022C16.5709 25.3378 16.5709 25.4204 16.4591 25.556C16.276 25.7777 16.0183 25.8939 15.7704 25.9934C15.1934 26.2255 14.5725 26.2626 14.0351 26.2789C13.2563 26.2621 12.6161 26.1918 12.0233 25.9043C11.8511 25.8207 11.6735 25.7222 11.5369 25.5664C11.4167 25.4288 11.4182 25.318 11.5419 25.1834C11.7749 24.9301 12.0852 24.8178 12.4137 24.699L12.4394 24.6896C12.48 24.6753 12.5226 24.6639 12.5676 24.6515ZM3.97653 14.9007C3.65442 14.9007 3.46838 15.0377 3.37288 15.3445L3.34765 15.4251C3.2665 15.6884 3.18932 15.9373 3.04682 16.1629C2.98843 16.2554 2.90679 16.3732 2.79497 16.4607C2.64604 16.5775 2.55895 16.5741 2.42288 16.4454C2.23288 16.2658 2.1176 16.0283 2.03893 15.8413C1.80192 15.2812 1.70098 14.6459 1.72028 13.8413C1.73661 13.1575 1.83705 12.6177 2.03596 12.1422C2.11513 11.9527 2.21953 11.7365 2.3927 11.5697C2.48028 11.4851 2.55153 11.4431 2.62229 11.4431C2.69354 11.4431 2.76429 11.4866 2.8494 11.5737C3.10322 11.833 3.22643 12.1655 3.31351 12.4564C3.4857 13.0304 3.57228 13.0957 4.16257 13.0897C4.23926 13.0892 4.31546 13.0897 4.39215 13.0902C4.50447 13.0912 4.62025 13.0922 4.73504 13.0887C4.74543 13.0883 4.75286 13.0887 4.7578 13.0892C4.7578 13.0942 4.7578 13.1011 4.75681 13.1105C4.69398 13.7013 4.69447 14.3 4.7578 14.8908C4.7583 14.8957 4.75879 14.9002 4.75879 14.9036C4.75533 14.9036 4.75088 14.9036 4.74593 14.9036C4.64598 14.9002 4.54504 14.9007 4.44757 14.9017C4.43322 14.9017 4.41937 14.9017 4.40502 14.9022V14.9012H3.97653V14.9007Z" fill="#1F4827"/>
<path id="Vector_2" d="M17.8584 11.9231C16.7193 11.9409 15.803 12.8706 15.8149 13.9962C15.804 14.5361 16.0078 15.0472 16.3893 15.4366C16.7871 15.8423 17.3359 16.0754 17.895 16.0754C17.8955 16.0754 17.8955 16.0754 17.896 16.0754C18.4402 16.0754 18.9548 15.8572 19.3447 15.4618C19.7405 15.0605 19.9548 14.5326 19.9474 13.975C19.9399 13.4243 19.7133 12.9042 19.3086 12.5109C18.9103 12.1235 18.3942 11.9152 17.8584 11.9231ZM18.9217 13.9666C18.9316 14.5291 18.462 15.0155 17.896 15.0299C17.3225 15.0462 16.8599 14.593 16.8435 14.0032C16.8361 13.737 16.9341 13.4831 17.1196 13.2887C17.3175 13.0809 17.5907 12.9626 17.8885 12.9562C18.1364 12.9512 18.3952 13.0571 18.5936 13.2476C18.7975 13.4436 18.9172 13.7053 18.9217 13.9666Z" fill="#1F4827"/>
<path id="Vector_3" d="M14.0131 12.2887C14.0176 12.2887 14.0225 12.2887 14.027 12.2887C14.5673 12.2847 15.0814 12.0621 15.4752 11.6613C15.8646 11.2649 16.0843 10.7301 16.0784 10.1942C16.066 9.0933 15.1041 8.1344 14.0161 8.1344C14.0116 8.1344 14.0067 8.1344 14.0022 8.1344H14.0007C12.837 8.16508 11.9454 9.05224 11.9256 10.1982C11.9162 10.7415 12.129 11.26 12.5243 11.6593C12.9211 12.0601 13.4629 12.2887 14.0131 12.2887ZM14.0176 9.16554C14.5757 9.16554 15.0324 9.6252 15.0363 10.1912C15.0403 10.7647 14.5826 11.2348 14.0156 11.2397C13.7365 11.2432 13.4748 11.1348 13.2754 10.9379C13.0745 10.7395 12.9632 10.4753 12.9622 10.1932C12.9612 9.9196 13.0695 9.66182 13.2675 9.46786C13.4659 9.27341 13.7306 9.16604 14.0136 9.16455C14.0151 9.16554 14.0161 9.16554 14.0176 9.16554Z" fill="#1F4827"/>
<path id="Vector_4" d="M10.1279 11.927C9.59007 11.9181 9.07499 12.1264 8.67966 12.5143C8.28184 12.9047 8.05275 13.4416 8.05177 13.9878C8.05028 14.5445 8.2675 15.0694 8.66333 15.4658C9.05669 15.8596 9.57721 16.0768 10.1294 16.0768C10.1299 16.0768 10.1304 16.0768 10.1309 16.0768C11.2818 16.0759 12.1833 15.1506 12.1838 13.97C12.1966 13.0042 11.4149 11.9488 10.1279 11.927ZM9.41937 13.2397C9.6163 13.0537 9.86864 12.9527 10.1334 12.9527C10.1442 12.9527 10.1551 12.9527 10.1655 12.9532C10.6944 12.9696 11.1709 13.4594 11.166 13.9804C11.163 14.2664 11.0438 14.5445 10.8389 14.7429C10.641 14.9344 10.3847 15.0373 10.119 15.0304C9.83598 15.0239 9.55692 14.8973 9.35257 14.683C9.16801 14.4896 9.07005 14.2511 9.07598 14.0126C9.0839 13.7157 9.20611 13.4411 9.41937 13.2397Z" fill="#1F4827"/>
<path id="Vector_5" d="M14.0188 15.6869C13.4676 15.6809 12.9248 15.9011 12.5285 16.293C12.1376 16.6804 11.9228 17.1896 11.9243 17.7269C11.9258 18.2999 12.1415 18.8283 12.5319 19.2152C12.9193 19.5992 13.4473 19.8174 13.9836 19.8154C13.9906 19.8154 13.998 19.8154 14.0049 19.8154C14.5457 19.8154 15.0771 19.5952 15.467 19.2098C15.8594 18.8219 16.0756 18.3113 16.0756 17.7729C16.0756 16.7828 15.2894 15.7032 14.0188 15.6869ZM13.2702 17.0288C13.4671 16.8328 13.7273 16.725 14.0034 16.725C14.0044 16.725 14.0054 16.725 14.0059 16.725C14.2771 16.7255 14.5348 16.8358 14.7313 17.0347C14.9302 17.2361 15.0385 17.4998 15.0356 17.7769C15.0296 18.334 14.5551 18.8021 13.9985 18.8021C13.9965 18.8021 13.995 18.8021 13.993 18.8021C13.4334 18.7991 12.9619 18.3231 12.9629 17.7625C12.9639 17.4859 13.0727 17.2252 13.2702 17.0288Z" fill="#1F4827"/>
</g>
</svg>
