<svg width="10" height="26" viewBox="0 0 10 26" fill="none" xmlns="http://www.w3.org/2000/svg">
<g id="Group">
<path id="Vector" d="M8.08977 10.0372C8.08977 12.1569 8.09824 14.2771 8.08083 16.3969C8.07801 16.7366 8.16647 16.9629 8.41538 17.1991C9.18986 17.9341 9.64816 18.8497 9.80531 19.9079C10.0495 21.5515 9.57334 22.9748 8.42526 24.1577C7.679 24.927 6.74642 25.3646 5.68632 25.5557C3.73411 25.9071 1.35795 24.8475 0.394782 22.5984C-0.416406 20.7045 0.0489447 18.502 1.53393 17.1233C1.72637 16.945 1.79366 16.7709 1.79319 16.5117C1.78425 12.3127 1.78801 8.11417 1.78566 3.9152C1.78519 3.35292 1.82942 2.8024 2.05856 2.27729C2.63213 0.965463 3.93455 0.333077 5.06005 0.380129C6.48528 0.439886 7.68935 1.46328 8.00461 2.85792C8.07424 3.16518 8.08883 3.47572 8.08883 3.78815C8.09071 5.87117 8.09024 7.95419 8.08977 10.0372ZM2.73518 10.1897C2.73565 10.1897 2.73659 10.1897 2.73706 10.1897C2.73706 10.7896 2.73706 11.3895 2.73706 11.989C2.738 13.657 2.73706 15.325 2.7413 16.993C2.74177 17.1972 2.6773 17.3591 2.51874 17.4885C2.38228 17.6005 2.24442 17.7124 2.12067 17.8376C1.45017 18.5147 1.05352 19.3198 0.971648 20.2787C0.911891 20.984 0.976824 21.6705 1.28925 22.309C2.04821 23.8608 3.29417 24.6659 5.03041 24.6621C6.09992 24.6598 7.01979 24.2546 7.76746 23.498C8.62805 22.6271 9.01718 21.5661 8.91696 20.3403C8.83038 19.2821 8.39044 18.3909 7.59196 17.6894C7.14966 17.3007 7.1346 17.3511 7.13507 16.7093C7.13743 12.4284 7.1379 8.14758 7.14025 3.86673C7.14025 3.63617 7.14872 3.40373 7.10731 3.17835C6.9511 2.3347 6.47445 1.73619 5.66138 1.45858C4.85396 1.18285 4.103 1.33248 3.45791 1.90511C2.9281 2.37563 2.73283 2.98826 2.73424 3.68228C2.73706 5.85141 2.73518 8.02054 2.73518 10.1897Z" fill="#1F4827"/>
<path id="Vector_2" d="M9.3647 9.96893C9.48421 9.96564 9.59526 9.96752 9.70019 10.0085C9.88134 10.08 9.99756 10.2564 9.9952 10.4508C9.99285 10.6423 9.87193 10.8164 9.68184 10.8794C9.4668 10.9509 9.24613 10.9556 9.02874 10.8893C8.83206 10.8291 8.7022 10.6338 8.70926 10.4277C8.71632 10.2249 8.865 10.0428 9.06733 9.99575C9.16802 9.9727 9.27013 9.96187 9.3647 9.96893Z" fill="#1F4827"/>
<path id="Vector_3" d="M9.36924 12.6053C9.60215 12.5992 9.80353 12.6373 9.92634 12.8438C10.1075 13.1473 9.93858 13.4946 9.58897 13.5449C9.42994 13.568 9.2709 13.5731 9.11186 13.5449C8.88695 13.5054 8.72273 13.3261 8.71426 13.1106C8.70532 12.8801 8.84836 12.6923 9.07939 12.6373C9.17914 12.6137 9.28031 12.5954 9.36924 12.6053Z" fill="#1F4827"/>
<path id="Vector_4" d="M9.35919 7.33022C9.45329 7.32975 9.54739 7.32176 9.64056 7.34905C9.86782 7.41492 10.0043 7.59231 9.99722 7.82004C9.99063 8.03131 9.84712 8.20776 9.62691 8.25481C9.44906 8.29292 9.26696 8.29669 9.08863 8.25716C8.84913 8.20399 8.70092 8.00261 8.71644 7.76264C8.73103 7.53302 8.90701 7.36081 9.1625 7.33164C9.22744 7.32411 9.29378 7.33022 9.35919 7.33022Z" fill="#1F4827"/>
<path id="Vector_5" d="M9.35337 16.2081C9.26679 16.2053 9.18115 16.2034 9.09599 16.1846C8.87249 16.1352 8.71533 15.9498 8.71533 15.7324C8.71533 15.5065 8.87249 15.316 9.1021 15.2732C9.25596 15.2444 9.41171 15.2379 9.56792 15.2652C9.82436 15.3099 9.99987 15.5042 9.99704 15.7451C9.99422 15.9874 9.83048 16.1596 9.56228 16.1968C9.49358 16.2062 9.423 16.2048 9.35337 16.2081Z" fill="#1F4827"/>
<path id="Vector_6" d="M9.37245 5.64759C9.25246 5.64053 9.14942 5.63959 9.05108 5.60665C8.83746 5.53419 8.70948 5.35727 8.71606 5.14365C8.72218 4.93992 8.86051 4.76817 9.0746 4.71312C9.26846 4.66325 9.46655 4.6656 9.659 4.71877C9.87403 4.77806 10.01 4.98085 9.99119 5.19447C9.97143 5.42079 9.8091 5.5963 9.58795 5.62736C9.51125 5.63818 9.43315 5.64194 9.37245 5.64759Z" fill="#1F4827"/>
<path id="Vector_7" d="M6.22062 13.9288C6.22062 15.1489 6.23097 16.369 6.21262 17.5891C6.20886 17.8497 6.27002 17.9834 6.50152 18.1231C7.35412 18.6379 7.80959 19.4218 7.93098 20.4052C8.09661 21.7471 7.14991 23.3615 5.39437 23.6339C4.07596 23.8386 2.71519 23.1088 2.1835 21.8864C1.55299 20.4372 2.15621 18.7329 3.56073 18.006C3.63931 17.9655 3.66378 17.9199 3.66331 17.8356C3.65907 15.252 3.65719 12.6678 3.65531 10.0842C3.65531 10.0225 3.6586 9.9609 3.66566 9.89973C3.69154 9.68094 3.84681 9.52331 4.06655 9.4979C4.4392 9.45461 4.81327 9.48379 5.18687 9.47955C5.38355 9.4772 5.58117 9.46214 5.77738 9.49084C6.0357 9.52802 6.18533 9.67764 6.20368 9.9369C6.2178 10.1373 6.21873 10.3392 6.21873 10.5401C6.22015 11.6699 6.2192 12.7996 6.2192 13.9293C6.22015 13.9288 6.22015 13.9288 6.22062 13.9288Z" fill="#1F4827"/>
</g>
</svg>
