<svg width="28" height="30" viewBox="0 0 28 30" fill="none" xmlns="http://www.w3.org/2000/svg">
<g id="Group">
<g id="Group_2">
<path id="Vector" d="M24.3562 19.3003C24.3539 18.9991 24.4737 18.8174 24.745 18.7113C25.1117 18.5676 25.4803 18.4253 25.7925 18.3055C26.8569 17.8961 27.4413 16.9523 27.3169 15.8419C27.2678 15.4036 27.0764 14.9909 26.7151 14.5434C26.0683 13.7428 25.3839 12.9225 24.6229 12.0357C24.4971 11.8893 24.3782 11.7254 24.3585 11.5197C24.33 11.2241 24.2956 10.8812 24.2556 10.5471C24.0977 9.23838 23.7374 8.00635 23.1852 6.88587C22.1179 4.71926 20.5696 3.02499 18.5834 1.84988C16.2626 0.476472 13.7549 -0.0569177 11.1302 0.264401C9.16099 0.50539 7.34967 1.19531 5.74583 2.31442C4.02723 3.51385 2.69376 5.09612 1.78351 7.01623C0.823681 9.04008 0.480329 11.2007 0.762631 13.438C0.919159 14.6765 1.229 15.7212 1.71052 16.631C2.14797 17.4573 2.74012 18.2707 3.52092 19.1171C3.78487 19.4031 3.85464 19.6734 3.75319 20.02C3.51312 20.843 3.30702 21.6881 3.10734 22.5052C3.01829 22.8701 2.92603 23.2479 2.83238 23.6179C2.80668 23.7184 2.77868 23.8212 2.75114 23.9208C2.66117 24.2481 2.56799 24.5869 2.54503 24.9412C2.48674 25.8492 3.00498 26.9738 4.28016 27.2979C4.88928 27.4526 5.50897 27.6077 6.108 27.7578L9.3827 28.5781C10.9002 28.9582 12.4178 29.3378 13.9349 29.7183C14.1511 29.7725 14.4127 29.8257 14.695 29.8257C14.8451 29.8257 15.0007 29.8106 15.1582 29.7725C16.0413 29.559 16.6206 28.9926 16.8795 28.0879C16.9511 27.8372 17.0227 27.5866 17.0939 27.336C17.2963 26.6254 17.5056 25.8905 17.7196 25.1703C17.8449 24.7489 17.9853 24.6452 18.4356 24.6429C18.8538 24.6406 19.2789 24.641 19.6902 24.6419C19.8715 24.6419 20.0528 24.6424 20.2341 24.6424C20.4205 24.6424 20.6068 24.6433 20.7937 24.6442C21.2228 24.6465 21.6672 24.6488 22.1046 24.6397C22.7991 24.625 23.3844 24.3372 23.8439 23.784C24.1872 23.3709 24.3548 22.8674 24.3566 22.2449C24.3608 21.28 24.3635 20.2821 24.3562 19.3003ZM22.5995 21.2025C22.5999 21.51 22.5999 21.8176 22.5999 22.1274C22.5999 22.2109 22.5999 22.2894 22.5958 22.3684C22.5784 22.687 22.3943 22.8733 22.0909 22.8793C21.6139 22.8889 21.143 22.8866 20.6872 22.8848C20.5054 22.8839 20.3282 22.883 20.1579 22.883H20.1538C19.8678 22.8903 19.5924 22.888 19.3257 22.8857C18.9075 22.882 18.5127 22.8788 18.1129 22.911C17.2601 22.9794 16.6344 23.3984 16.253 24.1558C16.0638 24.5318 15.9569 24.9348 15.8541 25.3245C15.816 25.4687 15.7765 25.6174 15.7338 25.7611C15.6434 26.0658 15.5557 26.3766 15.4708 26.6768C15.384 26.9853 15.2941 27.3038 15.2009 27.6155C15.087 27.9974 14.8529 28.1429 14.4862 28.0599C13.9124 27.93 13.3313 27.7826 12.7689 27.6403C12.539 27.582 12.3085 27.5237 12.0781 27.4663C9.67372 26.8673 7.26888 26.2678 4.8645 25.6683C4.73597 25.6362 4.60285 25.5981 4.506 25.5132C4.32973 25.3585 4.27189 25.1712 4.32376 24.9229C4.47662 24.1962 4.66298 23.4636 4.84338 22.7549C4.94896 22.3399 5.05821 21.9103 5.16011 21.4861C5.19821 21.3269 5.24182 21.1648 5.28359 21.0083C5.3708 20.6833 5.46123 20.3468 5.51264 20.0039C5.62189 19.2773 5.40661 18.6154 4.87276 18.0361C4.50049 17.6321 4.0231 17.091 3.63293 16.4837C2.96367 15.4417 2.57074 14.2739 2.46562 13.0134C2.31873 11.2553 2.5308 9.72174 3.11377 8.32537C3.84729 6.56822 4.84017 5.21225 6.14977 4.1799C7.63289 3.01076 9.17247 2.31442 10.8562 2.05139C11.4079 1.9651 11.9588 1.92241 12.5068 1.92241C13.1876 1.92241 13.8633 1.98897 14.5275 2.12162C16.1827 2.45258 17.6755 3.16867 18.9644 4.25059C20.8648 5.84525 22.0486 7.90399 22.4833 10.3703C22.5389 10.6843 22.5618 11.0111 22.5843 11.3279C22.5935 11.4587 22.6031 11.5941 22.6151 11.7277C22.6573 12.2069 22.8496 12.6411 23.2022 13.0561C23.4744 13.3765 23.748 13.7056 24.0124 14.0242C24.442 14.5415 24.8859 15.0767 25.3399 15.5899C25.4808 15.7492 25.5818 15.8755 25.5919 16.0467C25.6098 16.3482 25.4817 16.5484 25.1999 16.6586C25.1025 16.6967 25.0043 16.7343 24.9065 16.7715C24.5939 16.8908 24.2708 17.0143 23.9614 17.1621C23.0626 17.5918 22.6045 18.3221 22.6004 19.3328C22.5985 19.9557 22.599 20.5897 22.5995 21.2025Z" fill="#1F4827"/>
</g>
<path id="Vector_2" d="M11.0373 17.9743C11.5133 17.972 11.9535 18.0615 12.3786 18.2254C12.609 18.3144 12.6714 18.5527 12.5135 18.7138C12.4222 18.807 12.3129 18.8267 12.189 18.7858C11.9962 18.722 11.8025 18.6624 11.5996 18.6325C10.4626 18.4645 9.49357 18.7959 8.6944 19.6148C8.43229 19.8834 8.24822 20.2084 8.09858 20.5522C8.0692 20.6192 8.0435 20.6876 7.99347 20.7436C7.90212 20.8455 7.76303 20.8758 7.64598 20.8184C7.5225 20.7583 7.4486 20.6183 7.48395 20.4852C7.55509 20.218 7.69372 19.9812 7.84015 19.7503C8.458 18.7771 9.34943 18.2185 10.4754 18.0188C10.5411 18.0073 10.6076 18 10.6742 17.9945C10.8018 17.9839 10.928 17.9674 11.0373 17.9743Z" fill="#1F4827"/>
<path id="Vector_3" d="M11.0399 25.6146C10.5763 25.6155 10.1311 25.5205 9.70094 25.3516C9.55819 25.2956 9.49163 25.1744 9.51045 25.0344C9.52835 24.9045 9.63347 24.8044 9.77393 24.7828C9.84324 24.7723 9.90705 24.797 9.96856 24.8195C10.2431 24.9191 10.5267 24.9719 10.8168 24.9866C12.1733 25.0559 13.1845 24.4822 13.8813 23.3314C13.9515 23.2152 13.9984 23.0849 14.0544 22.9605C14.1044 22.8494 14.1788 22.7668 14.305 22.7498C14.523 22.7204 14.6846 22.9238 14.6153 23.1423C14.5391 23.3828 14.422 23.605 14.2898 23.8193C13.8712 24.4968 13.2754 24.9696 12.5611 25.2978C12.109 25.5058 11.5343 25.6146 11.0399 25.6146Z" fill="#1F4827"/>
<path id="Vector_4" d="M12.2982 21.8051C12.2968 22.4804 11.7387 23.0206 11.0474 23.0161C10.3694 23.011 9.82727 22.468 9.82911 21.7946C9.83048 21.1056 10.379 20.5699 11.0777 20.5745C11.7589 20.5786 12.2996 21.1239 12.2982 21.8051ZM11.0506 21.1799C10.7036 21.1818 10.43 21.4503 10.4341 21.7859C10.4382 22.1329 10.7118 22.4097 11.0487 22.4088C11.4031 22.4078 11.6749 22.1366 11.6712 21.7882C11.6675 21.4581 11.3825 21.1786 11.0506 21.1799Z" fill="#1F4827"/>
<path id="Vector_5" d="M10.991 19.2882C11.0451 19.2882 11.0993 19.2846 11.153 19.2887C11.3274 19.302 11.444 19.4255 11.4445 19.5926C11.4445 19.7542 11.3293 19.8772 11.1548 19.8854C10.8712 19.8988 10.5907 19.9212 10.3263 20.0383C9.64371 20.3403 9.25951 20.8641 9.16357 21.6022C9.1576 21.6495 9.15393 21.6972 9.14796 21.7445C9.12639 21.9111 9.00107 22.014 8.82986 22.0066C8.67333 21.9997 8.55582 21.8873 8.55352 21.7238C8.54526 21.2166 8.70776 20.7594 8.9997 20.3527C9.40272 19.7918 9.94529 19.4393 10.6311 19.3195C10.75 19.2983 10.8698 19.2864 10.991 19.2882Z" fill="#1F4827"/>
<path id="Vector_6" d="M11.1075 24.2977C11.0345 24.2954 10.9615 24.3023 10.8894 24.2825C10.7522 24.2458 10.6526 24.1168 10.659 23.981C10.6659 23.8382 10.7692 23.7267 10.9151 23.7042C11.0597 23.6821 11.2071 23.6922 11.3521 23.6693C12.2178 23.5334 12.8775 22.8201 12.9463 21.9415C12.9491 21.9039 12.9541 21.8658 12.9619 21.8286C12.9996 21.6546 13.1212 21.5642 13.2906 21.5825C13.4439 21.5991 13.566 21.7372 13.5545 21.9029C13.5302 22.2509 13.4595 22.5919 13.2943 22.9009C13.0106 23.4301 12.6163 23.8533 12.0503 24.0879C11.7496 24.2132 11.4366 24.2958 11.1075 24.2977Z" fill="#1F4827"/>
</g>
</svg>
