<svg width="40" height="40" viewBox="0 0 40 40" fill="none" xmlns="http://www.w3.org/2000/svg">
<g id="fiebre-icono_Mesa de trabajo 1_Mesa de trabajo 2">
<path id="Vector" d="M9.19189 19.3927C9.19189 16.3066 12.7557 14.654 14.5862 15.0124L15.4431 6.94869C15.5015 6.35138 15.9884 5.93326 16.5726 5.97308C17.1374 6.03281 17.5658 6.55048 17.5074 7.12788L16.4752 17.1826C16.4168 17.7401 15.9494 18.1981 15.3457 18.1383C14.8005 18.0985 14.411 17.6207 14.411 17.0831H14.3915C12.6973 17.0831 11.2562 18.1383 11.2562 19.3728C11.2562 20.6072 12.6778 21.6625 14.3915 21.6625C15.4431 21.6625 16.8842 21.6227 17.78 23.3748C18.15 24.0915 18.9874 24.7884 19.9806 24.7884C21.0322 24.7884 22.0254 24.1115 22.3954 23.3748C23.2717 21.6426 24.7518 21.6625 25.7839 21.6625C27.4782 21.6625 28.9193 20.6072 28.9193 19.3728C28.9193 18.1383 27.4782 17.0831 25.7839 17.0831H25.7644C25.7644 17.6207 25.375 18.0985 24.8297 18.1383C24.226 18.1782 23.7391 17.7401 23.7002 17.1826L22.668 7.12788C22.6096 6.55048 23.038 6.03281 23.6028 5.97308C24.187 5.93326 24.6934 6.35138 24.7323 6.94869L25.5892 15.0124C27.4392 14.6739 30.9835 16.3265 30.9835 19.3927C30.9835 21.8218 28.6466 23.8128 25.7644 23.8128C25.0828 23.8128 24.5765 23.6535 24.226 24.3703C23.5054 25.8038 21.9085 26.9188 19.9611 26.9188C17.8774 26.9188 16.631 25.8038 15.9105 24.3703C15.5405 23.6535 15.0536 23.8128 14.372 23.8128C11.5288 23.8128 9.19189 21.8218 9.19189 19.3927Z" fill="#1F4827"/>
<path id="Vector_2" d="M13.2232 25.8835C12.6779 26.5804 10.9058 28.9696 10.9058 30.5425C10.9058 32.4539 12.3079 34.0069 14.0411 34.0069C15.7743 34.0069 17.1765 32.4539 17.1765 30.5425C17.1765 28.9696 15.4043 26.5804 14.859 25.8835C14.4501 25.3658 13.6127 25.3658 13.2232 25.8835ZM14.0411 31.8765C13.4764 31.8765 13.009 31.2792 13.009 30.5425C13.009 30.1642 13.4764 29.2484 14.0411 28.3723C14.6253 29.2683 15.0732 30.1642 15.0732 30.5425C15.0732 31.2792 14.6059 31.8765 14.0411 31.8765Z" fill="#1F4827"/>
</g>
</svg>
