<svg width="48" height="48" viewBox="0 0 48 48" fill="none" xmlns="http://www.w3.org/2000/svg">
<path d="M6.42748 39.1365C5.88094 38.5777 5.88094 37.6837 6.42748 37.1249L14.079 29.302C15.6366 27.7095 17.7408 26.8155 19.9542 26.8155H29.5732C30.8576 26.8155 32.0053 27.5139 32.6338 28.5477L36.1043 24.9995C37.416 23.6584 39.6841 23.6584 40.9958 24.9995C42.3348 26.3685 42.3348 28.6315 40.9958 30.0005L33.0984 38.0748C31.9507 39.2483 30.4477 39.9747 28.8354 40.1144L19.0798 40.9246L16.675 43.3832C16.1285 43.942 15.254 43.942 14.7075 43.3832C14.1609 42.8244 14.1609 41.9304 14.7075 41.3716L17.4675 38.5498C17.6861 38.2983 18.014 38.1586 18.3419 38.1307L28.5895 37.2925C29.5459 37.2087 30.4477 36.7617 31.1309 36.0632L39.001 28.0168C39.2742 27.7375 39.2742 27.2904 39.001 27.011C38.7277 26.7317 38.2905 26.7317 38.0172 27.011L32.142 33.0179C32.1146 33.0458 32.1146 33.0458 32.0873 33.0458C31.5681 33.5767 30.8849 33.9119 30.0924 34.0237L22.8235 35.2809C22.0584 35.3927 21.3479 34.8898 21.2386 34.1075C21.1019 33.3252 21.6212 32.5988 22.3863 32.4871L29.7372 31.2298C30.1471 31.1739 30.4204 30.8945 30.4204 30.5313C30.4204 30.0564 30.0378 29.6373 29.5459 29.6373H19.9542C18.4786 29.6373 17.0849 30.224 16.0465 31.2857L8.395 39.1086C7.84847 39.6953 6.97401 39.6953 6.42748 39.1365Z" fill="#1F4827"/>
<path d="M29.4914 15.7798V18.7972C31.4316 18.2943 33.6178 18.9369 34.9841 20.5015C35.5033 21.0882 35.4487 21.9822 34.8748 22.513C34.301 23.0439 33.4265 22.988 32.9346 22.4013C31.9509 21.2837 30.12 21.172 29.0269 22.1778C28.617 22.541 28.0431 22.6527 27.5512 22.4013C27.0594 22.1498 26.7314 21.6749 26.7314 21.1161V15.7798H29.4914Z" fill="#1F4827"/>
<path d="M19.7905 18.6016C20.255 18.6016 20.7196 18.6575 21.1842 18.7692V15.7798H23.9442V21.1161C23.9442 21.8984 23.3156 22.541 22.5505 22.541C22.2226 22.541 21.8673 22.4013 21.6214 22.1778C21.1295 21.7028 20.4737 21.4514 19.7905 21.4514C18.2602 21.4514 17.0305 22.7086 17.0305 24.2732C17.0305 25.0555 16.402 25.6981 15.6368 25.6981C14.8717 25.6981 14.2432 25.0555 14.2432 24.2732C14.2705 21.144 16.7572 18.6016 19.7905 18.6016Z" fill="#1F4827"/>
<path d="M19.1346 15.3606C19.3805 15.6121 19.7358 15.7797 20.1183 15.7797H22.8783H25.6383H28.3983H29.792C30.5572 15.7797 31.1857 15.1371 31.1857 14.3548V8.68323C31.1857 6.33637 29.3274 4.43652 27.032 4.43652H7.65734C6.89219 4.43652 6.26367 5.07912 6.26367 5.8614C6.26367 6.64369 6.89219 7.28629 7.65734 7.28629H27.032C27.7971 7.28629 28.4257 7.92888 28.4257 8.71117V12.9579H21.512H20.6922L18.3421 10.5272C18.0415 10.2199 17.6043 10.0522 17.167 10.136L7.46605 11.2257C6.7009 11.3374 6.18169 12.0638 6.291 12.8182C6.40031 13.6005 7.1108 14.1313 7.84862 14.0195L16.8391 13.0417L19.1346 15.3606Z" fill="#1F4827"/>
</svg>
