<svg width="48" height="48" viewBox="0 0 48 48" fill="none" xmlns="http://www.w3.org/2000/svg">
<path d="M44.3399 32.59L44.3099 32.53C43.7199 31.56 43.2799 30.5 42.9299 29.4C42.0499 26.83 40.9599 23.64 35.8599 17C34.4799 15.22 33.5399 14.12 32.5699 12.96L32.4999 12.9C31.3099 11.49 29.9299 9.89001 27.4899 6.70001C26.2699 4.88001 23.7599 4.38001 21.9499 5.57001C21.5099 5.85001 21.1399 6.20001 20.8199 6.60001L19.2899 4.63001C17.8799 2.81001 15.2499 2.44001 13.4099 3.85001C12.9699 4.19001 12.6299 4.60001 12.3499 5.07001C10.6599 3.76001 8.21991 3.91001 6.71991 5.48001C5.27991 6.98001 5.18991 9.33001 6.43991 10.96L6.90991 11.55C4.90991 12.18 3.64991 14.21 4.02991 16.31C4.15991 16.97 4.43991 17.59 4.83991 18.13L14.8899 31.25C13.8599 30.81 12.7599 30.53 11.6699 30.47H11.6399H11.6099C9.88991 30.5 8.28991 31.32 7.22991 32.66C6.22991 33.85 6.41991 35.63 7.60991 36.64C7.66991 36.7 7.73991 36.73 7.76991 36.77C9.58991 38.05 11.7799 39.46 14.0899 40.84C17.2199 42.75 20.6599 43.94 24.2899 44.35C25.5999 44.38 26.8899 44.79 27.9799 45.51C28.5099 45.95 29.1699 46.17 29.8299 46.17C30.0499 46.17 30.2399 46.14 30.4599 46.11C30.8699 46.02 31.2099 45.86 31.5599 45.61L43.6399 36.34C44.7799 35.38 45.0599 33.81 44.3399 32.59ZM19.8899 33.91C19.9499 33.53 19.8599 33.13 19.6399 32.78L7.01991 16.41C6.79991 16.1 6.70991 15.72 6.76991 15.35C6.82991 14.97 7.01991 14.63 7.32991 14.41C7.95991 13.94 8.79991 14.07 9.29991 14.66L17.8799 25.84C17.9699 25.97 18.0999 26.09 18.2599 26.15C18.2899 26.18 18.3499 26.21 18.3899 26.21C18.4799 26.27 18.6099 26.3 18.6699 26.3C18.7299 26.3 18.7599 26.33 18.8299 26.33C18.9599 26.36 19.1099 26.33 19.2399 26.33H19.2999C20.0499 26.14 20.5199 25.39 20.3299 24.67C20.2999 24.48 20.1999 24.29 20.0799 24.14L8.64991 9.24001C8.42991 8.93001 8.33991 8.55001 8.39991 8.18001C8.45991 7.80001 8.64991 7.46001 8.95991 7.24001C9.58991 6.77001 10.4299 6.90001 10.9299 7.49001L22.3599 22.42C22.8299 23.01 23.7099 23.11 24.2999 22.64C24.8899 22.17 24.9899 21.33 24.5499 20.73L14.8499 8.05001C14.3799 7.42001 14.5399 6.52001 15.1599 6.05001C15.7899 5.61001 16.6299 5.71001 17.0999 6.30001L27.3999 19.73C27.7099 20.17 28.2799 20.36 28.8099 20.23C28.9999 20.2 29.1899 20.1 29.3399 19.98C29.6199 19.76 29.8399 19.42 29.8699 19.07C29.9299 18.73 29.8399 18.35 29.6199 18.07L29.5599 17.91H29.5299L22.6399 8.93001C22.8299 8.52001 23.1399 8.15001 23.5199 7.90001C23.7999 7.71001 24.1499 7.65001 24.4599 7.71001C24.7999 7.77001 25.0899 7.96001 25.2699 8.27001L25.2999 8.30001L25.3299 8.33001C27.7999 11.55 29.1799 13.18 30.4299 14.62L30.4599 14.65C31.4299 15.78 32.3399 16.84 33.7199 18.63C38.5399 24.89 39.5399 27.86 40.3599 30.24C40.7399 31.52 41.2999 32.78 41.9899 33.97C41.9899 34 41.9899 34.03 41.9899 34.03L29.9399 43.26C29.9099 43.29 29.8499 43.26 29.8099 43.23L29.7799 43.2C28.2799 42.17 26.5199 41.57 24.7099 41.48C21.4899 41.14 18.3199 40.04 15.5699 38.35C12.6899 36.63 10.6199 35.25 9.39991 34.37L9.36991 34.34V34.31C9.92991 33.59 10.7499 33.18 11.6599 33.15C12.7199 33.28 13.7299 33.62 14.6299 34.15C15.5999 34.68 16.5999 35.03 17.6699 35.21H17.7299C18.2599 35.21 18.7599 35.05 19.1999 34.8C19.5499 34.63 19.7999 34.28 19.8899 33.91Z" fill="#1F4827"/>
</svg>
