<svg width="48" height="48" viewBox="0 0 48 48" fill="none" xmlns="http://www.w3.org/2000/svg">
<path fill-rule="evenodd" clip-rule="evenodd" d="M44.9399 20.8699C45.4999 20.1099 45.3399 19.0499 44.6099 18.4899L28.5499 6.46994C28.3799 6.36994 28.2499 6.23994 28.0899 6.13994L26.7699 5.14994C26.2699 4.78994 25.6499 4.28994 24.9499 4.12994C24.3599 3.95994 23.6899 3.95994 23.0699 4.12994C22.3799 4.32994 21.7499 4.78994 21.2499 5.14994L19.9299 6.13994C19.7599 6.23994 19.6299 6.36994 19.4699 6.46994L3.40987 18.4599C2.64987 19.0199 2.47987 20.1099 3.07987 20.8399C3.66987 21.5699 4.72987 21.7699 5.45987 21.1699L6.24987 20.5799C6.27987 20.5499 6.34987 20.5099 6.41987 20.5099C6.44987 20.5099 6.48987 20.5099 6.51987 20.5399C6.58987 20.5699 6.64987 20.6699 6.64987 20.7699V36.0999C6.64987 37.1199 6.64987 38.0199 6.71987 38.7399C6.78987 39.6699 6.94987 40.3299 7.27987 40.9199C7.80987 41.9799 8.66987 42.8399 9.71987 43.3599C10.3099 43.6599 11.0099 43.8199 11.8999 43.9199C12.6299 43.9999 13.5199 43.9999 14.5499 43.9999H33.4799C34.4999 43.9999 35.3999 43.9999 36.1199 43.9299C37.0499 43.8599 37.7099 43.6999 38.2999 43.3699C39.3599 42.8399 40.2199 41.9799 40.7399 40.9299C41.0399 40.3399 41.1999 39.6399 41.2999 38.7499C41.3699 38.0199 41.3699 37.1299 41.3699 36.1099V20.8099C41.3699 20.7099 41.4399 20.6399 41.4999 20.5799C41.5599 20.5199 41.6999 20.5499 41.7599 20.6099L42.5499 21.1999C42.9099 21.4599 43.3799 21.5999 43.8099 21.5299C44.2499 21.4699 44.6799 21.2399 44.9399 20.8699ZM28.1599 40.3999C28.1599 40.5299 28.0599 40.6599 27.8999 40.6599H20.0999C19.9699 40.6599 19.8399 40.5599 19.8399 40.3999V27.8799C19.8399 27.3199 19.8399 26.9899 19.8699 26.7199C19.8699 26.5899 19.9699 26.4599 20.0999 26.4599C20.3599 26.4299 20.6599 26.4299 21.2599 26.4299H26.7399C27.3299 26.4299 27.6699 26.4299 27.8999 26.4599C28.0299 26.4599 28.1299 26.5599 28.1599 26.6899C28.1899 26.9499 28.1899 27.2499 28.1899 27.8499L28.1599 40.3999ZM37.9399 36.0999C37.9399 37.2899 37.9399 37.9799 37.9099 38.5399C37.8799 39.0999 37.7799 39.3299 37.7099 39.4699C37.5099 39.8999 37.1799 40.2299 36.7499 40.4299C36.6199 40.4999 36.4199 40.5599 35.8199 40.6299C35.2599 40.6599 34.5599 40.6599 33.3799 40.6599H31.8299C31.6999 40.6599 31.5699 40.5599 31.5699 40.3999V27.8099C31.5699 27.3099 31.5699 26.8499 31.5399 26.4599C31.5099 26.0599 31.4399 25.5699 31.1799 25.0399C30.8199 24.3499 30.2499 23.7799 29.5899 23.4499C29.0599 23.1899 28.5299 23.1199 28.1699 23.0899C27.7699 23.0599 27.3099 23.0599 26.8199 23.0599H21.1999C20.6999 23.0599 20.2399 23.0599 19.8499 23.0899C19.4899 23.1199 18.9599 23.1899 18.4299 23.4499C17.7399 23.8099 17.1699 24.3799 16.8399 25.0399C16.5799 25.5699 16.5099 26.0599 16.4799 26.4599C16.4499 26.8599 16.4499 27.3199 16.4499 27.8099V40.3999C16.4499 40.5299 16.3499 40.6599 16.1899 40.6599H14.6399C13.4499 40.6599 12.7599 40.6599 12.1999 40.6299C11.6399 40.5999 11.4099 40.4999 11.2699 40.4299C10.8399 40.2299 10.5099 39.8999 10.3099 39.4699C10.2399 39.3399 10.1799 39.1399 10.1099 38.5399C10.0799 37.9799 10.0799 37.2799 10.0799 36.0999V17.8999C10.0799 17.8299 10.1099 17.7299 10.1799 17.6999L21.2799 9.36994C22.7999 8.20994 23.1299 8.01994 23.4599 7.94994C23.8199 7.84994 24.2199 7.84994 24.5799 7.94994C24.9099 8.04994 25.2399 8.20994 26.7599 9.36994L37.8899 17.6999C37.9599 17.7299 37.9899 17.8299 37.9899 17.8999L37.9399 36.0999Z" fill="#1F4827"/>
</svg>
