<svg width="48" height="48" viewBox="0 0 48 48" fill="none" xmlns="http://www.w3.org/2000/svg">
<path d="M8.3999 22.8219C8.3999 18.4023 13.5023 16.0356 16.1232 16.5489L17.35 5.00089C17.4337 4.14549 18.1307 3.5467 18.9672 3.60373C19.7758 3.68927 20.3892 4.43062 20.3055 5.25751L18.8278 19.6569C18.7441 20.4552 18.075 21.111 17.2106 21.0255C16.4299 20.9685 15.8723 20.2842 15.8723 19.5143H15.8444C13.4187 19.5143 11.3554 21.0255 11.3554 22.7933C11.3554 24.5612 13.3908 26.0724 15.8444 26.0724C17.35 26.0724 19.4133 26.0154 20.6959 28.5246C21.2256 29.5511 22.4246 30.549 23.8465 30.549C25.3522 30.549 26.7742 29.5796 27.3039 28.5246C28.5586 26.0439 30.6776 26.0724 32.1554 26.0724C34.5811 26.0724 36.6444 24.5612 36.6444 22.7933C36.6444 21.0255 34.5811 19.5143 32.1554 19.5143H32.1275C32.1275 20.2842 31.5699 20.9685 30.7892 21.0255C29.9248 21.0825 29.2278 20.4552 29.172 19.6569L27.6943 5.25751C27.6106 4.43062 28.224 3.68927 29.0326 3.60373C29.8691 3.5467 30.594 4.14549 30.6498 5.00089L31.8766 16.5489C34.5254 16.0641 39.5999 18.4308 39.5999 22.8219C39.5999 26.3005 36.2541 29.1519 32.1275 29.1519C31.1516 29.1519 30.4267 28.9238 29.9248 29.9502C28.8932 32.0032 26.6069 33.6 23.8187 33.6C20.8353 33.6 19.0508 32.0032 18.0192 29.9502C17.4894 28.9238 16.7924 29.1519 15.8165 29.1519C11.7457 29.1519 8.3999 26.3005 8.3999 22.8219Z" fill="#1F4827"/>
<path d="M14.3476 32.9474C13.5128 33.9298 10.7998 37.2983 10.7998 39.5158C10.7998 42.2105 12.9464 44.4 15.5998 44.4C18.2532 44.4 20.3998 42.2105 20.3998 39.5158C20.3998 37.2983 17.6868 33.9298 16.852 32.9474C16.2259 32.2176 14.9439 32.2176 14.3476 32.9474ZM15.5998 41.3965C14.7352 41.3965 14.0197 40.5544 14.0197 39.5158C14.0197 38.9825 14.7352 37.6913 15.5998 36.4562C16.4942 37.7193 17.1799 38.9825 17.1799 39.5158C17.1799 40.5544 16.4644 41.3965 15.5998 41.3965Z" fill="#1F4827"/>
</svg>
