<svg width="48" height="48" viewBox="0 0 48 48" fill="none" xmlns="http://www.w3.org/2000/svg">
<path d="M39.8499 6.59005C39.8499 6.56005 39.8199 6.56005 39.8199 6.54005C39.6599 6.32005 39.4099 6.16005 39.1399 6.10005L20.7099 2.46005C19.3199 2.19005 17.8399 2.49005 16.6599 3.28005C15.4599 4.07005 14.6599 5.30005 14.3599 6.73005L14.0899 8.15005C14.0099 8.61005 14.2299 9.08005 14.6399 9.30005L18.6099 11.32L17.7899 15.45C17.7399 15.72 17.7899 16.02 17.9499 16.24C18.0299 16.38 18.1699 16.49 18.3099 16.57L17.8699 18.87C16.3099 18.82 14.7499 19.31 13.4899 20.24C12.1499 21.25 11.2199 22.73 10.8899 24.37L8.09994 37.5201C7.82994 38.91 8.12994 40.39 8.91994 41.57C9.70994 42.7701 10.9399 43.57 12.3699 43.87L20.8799 45.5401C21.2099 45.59 21.5599 45.6501 21.8899 45.6501C22.9599 45.6501 24.0199 45.32 24.9299 44.75C26.1299 43.96 26.9299 42.73 27.2299 41.3L30.0199 28.14C30.3499 26.5 30.0499 24.78 29.1999 23.33C28.3799 21.96 27.1499 20.92 25.6699 20.4L26.1299 18.1C26.2899 18.07 26.4599 18.02 26.5899 17.94C26.8099 17.78 26.9699 17.53 27.0299 17.26L27.7999 13.38L28.9499 13.6L29.8499 16.85C30.0099 17.45 30.4199 17.97 30.9399 18.3C31.4899 18.6 32.1399 18.68 32.7499 18.52C33.3499 18.36 33.8699 17.95 34.1699 17.4C34.4699 16.85 34.5499 16.2 34.3899 15.59L33.7299 13.18L34.0299 11.62L34.4099 11.7C34.6799 11.75 34.9799 11.7 35.1999 11.54C35.3399 11.46 35.4499 11.32 35.5299 11.18L38.0699 11.67C38.3399 11.72 38.6399 11.67 38.8599 11.51C39.0799 11.35 39.2399 11.1 39.2999 10.83L39.9799 7.27005C40.0199 7.08005 39.9899 6.80005 39.8499 6.59005ZM37.6899 7.98005L37.4199 9.43005L35.9699 9.16005L36.2399 7.71005L37.6899 7.98005ZM31.5399 13.04C31.5099 13.2 31.5099 13.37 31.5699 13.53L32.3099 16.18C32.3399 16.26 32.3099 16.34 32.2599 16.4C32.2099 16.45 32.1199 16.48 32.0399 16.45C31.9599 16.42 31.8999 16.37 31.8799 16.29L30.8099 12.38C30.7599 12.16 30.6199 11.94 30.4299 11.81L31.8799 11.21H31.9299L31.5399 13.04ZM27.8999 27.7L21.1699 27.97L23.2199 17.58L23.9599 17.72L23.3299 20.97C23.2799 21.24 23.3299 21.54 23.4899 21.76C23.6499 21.98 23.8999 22.14 24.1699 22.2C25.3999 22.45 26.4699 23.16 27.1799 24.2L27.2099 24.23C27.8699 25.27 28.1199 26.5 27.8999 27.7ZM19.3099 20.95C19.5299 20.79 19.6899 20.54 19.7499 20.27L20.3799 17.07L21.1199 17.21L18.9899 28.1L12.2099 28.37L12.9499 24.84C13.1999 23.61 13.9099 22.54 14.9499 21.83C15.7399 21.31 16.6499 21.04 17.5799 21.04C17.8799 21.04 18.1799 21.07 18.4799 21.12C18.7899 21.16 19.0699 21.11 19.3099 20.95ZM18.5699 30.3L17.9999 33.2C17.8899 33.77 18.2699 34.35 18.8499 34.46C19.4199 34.57 19.9999 34.19 20.1099 33.61L20.7699 30.22L27.4699 29.95L25.1499 40.9501C24.9899 41.8 24.4899 42.54 23.7599 43.03C23.0299 43.5201 22.1699 43.69 21.2999 43.5201L12.7899 41.85C11.9399 41.69 11.1999 41.19 10.7099 40.46C10.2199 39.72 10.0499 38.87 10.2199 38L11.7799 30.59L18.5699 30.3ZM20.0799 14.82L20.6299 11.98L25.6399 12.96L25.0899 15.8L20.0799 14.82ZM20.2999 4.53005L34.1399 7.27005L33.7299 9.43005L31.9199 9.07005C31.6999 9.04005 31.5099 9.04005 31.3199 9.12005L26.8099 11.01L20.1899 9.70005L16.3599 7.73005L16.4999 7.10005C16.6599 6.25005 17.1599 5.51005 17.8899 5.02005C18.5699 4.56005 19.4499 4.37005 20.2999 4.53005Z" fill="#1F4827"/>
</svg>
