<svg width="36" height="35" viewBox="0 0 36 35" fill="none" xmlns="http://www.w3.org/2000/svg">
<rect x="0.5" width="35" height="35" rx="17.5" fill="#1F4827"/>
<path d="M21.8984 21.8125V23H14.4531V21.9609L18.1797 17.8125C18.638 17.3021 18.9922 16.8698 19.2422 16.5156C19.4974 16.1562 19.6745 15.8359 19.7734 15.5547C19.8776 15.2682 19.9297 14.9766 19.9297 14.6797C19.9297 14.3047 19.8516 13.9661 19.6953 13.6641C19.5443 13.3568 19.3203 13.112 19.0234 12.9297C18.7266 12.7474 18.3672 12.6562 17.9453 12.6562C17.4401 12.6562 17.0182 12.7552 16.6797 12.9531C16.3464 13.1458 16.0964 13.4167 15.9297 13.7656C15.763 14.1146 15.6797 14.5156 15.6797 14.9688H14.2344C14.2344 14.3281 14.375 13.7422 14.6562 13.2109C14.9375 12.6797 15.3542 12.2578 15.9062 11.9453C16.4583 11.6276 17.138 11.4688 17.9453 11.4688C18.6641 11.4688 19.2786 11.5964 19.7891 11.8516C20.2995 12.1016 20.6901 12.4557 20.9609 12.9141C21.237 13.3672 21.375 13.8984 21.375 14.5078C21.375 14.8411 21.3177 15.1797 21.2031 15.5234C21.0938 15.862 20.9401 16.2005 20.7422 16.5391C20.5495 16.8776 20.3229 17.2109 20.0625 17.5391C19.8073 17.8672 19.5339 18.1901 19.2422 18.5078L16.1953 21.8125H21.8984Z" fill="#D3FB58"/>
</svg>
