<svg width="36" height="35" viewBox="0 0 36 35" fill="none" xmlns="http://www.w3.org/2000/svg">
<rect x="0.5" width="35" height="35" rx="17.5" fill="#1F4827"/>
<path d="M16.5547 16.6016H17.5859C18.0911 16.6016 18.5078 16.5182 18.8359 16.3516C19.1693 16.1797 19.4167 15.9479 19.5781 15.6562C19.7448 15.3594 19.8281 15.026 19.8281 14.6562C19.8281 14.2188 19.7552 13.8516 19.6094 13.5547C19.4635 13.2578 19.2448 13.0339 18.9531 12.8828C18.6615 12.7318 18.2917 12.6562 17.8438 12.6562C17.4375 12.6562 17.0781 12.737 16.7656 12.8984C16.4583 13.0547 16.2161 13.2786 16.0391 13.5703C15.8672 13.862 15.7812 14.2057 15.7812 14.6016H14.3359C14.3359 14.0234 14.4818 13.4974 14.7734 13.0234C15.0651 12.5495 15.474 12.1719 16 11.8906C16.5312 11.6094 17.1458 11.4688 17.8438 11.4688C18.5312 11.4688 19.1328 11.5911 19.6484 11.8359C20.1641 12.0755 20.5651 12.4349 20.8516 12.9141C21.138 13.388 21.2812 13.9792 21.2812 14.6875C21.2812 14.974 21.2135 15.2812 21.0781 15.6094C20.9479 15.9323 20.7422 16.2344 20.4609 16.5156C20.1849 16.7969 19.8255 17.0286 19.3828 17.2109C18.9401 17.388 18.4089 17.4766 17.7891 17.4766H16.5547V16.6016ZM16.5547 17.7891V16.9219H17.7891C18.513 16.9219 19.112 17.0078 19.5859 17.1797C20.0599 17.3516 20.4323 17.5807 20.7031 17.8672C20.9792 18.1536 21.1719 18.4688 21.2812 18.8125C21.3958 19.151 21.4531 19.4896 21.4531 19.8281C21.4531 20.3594 21.362 20.8307 21.1797 21.2422C21.0026 21.6536 20.75 22.0026 20.4219 22.2891C20.099 22.5755 19.7188 22.7917 19.2812 22.9375C18.8438 23.0833 18.3672 23.1562 17.8516 23.1562C17.3568 23.1562 16.8906 23.0859 16.4531 22.9453C16.0208 22.8047 15.638 22.6016 15.3047 22.3359C14.9714 22.0651 14.7109 21.7344 14.5234 21.3438C14.3359 20.9479 14.2422 20.4974 14.2422 19.9922H15.6875C15.6875 20.388 15.7734 20.7344 15.9453 21.0312C16.1224 21.3281 16.3724 21.5599 16.6953 21.7266C17.0234 21.888 17.4089 21.9688 17.8516 21.9688C18.2943 21.9688 18.6745 21.8932 18.9922 21.7422C19.3151 21.5859 19.5625 21.3516 19.7344 21.0391C19.9115 20.7266 20 20.3333 20 19.8594C20 19.3854 19.901 18.9974 19.7031 18.6953C19.5052 18.388 19.224 18.1615 18.8594 18.0156C18.5 17.8646 18.0755 17.7891 17.5859 17.7891H16.5547Z" fill="#D3FB58"/>
</svg>
