<svg width="48" height="48" viewBox="0 0 48 48" fill="none" xmlns="http://www.w3.org/2000/svg">
<path d="M27.9305 26.9199C29.4805 25.7399 30.4005 23.8999 30.4005 21.9199C30.4005 18.4599 27.4805 15.5599 24.0405 15.5599C20.4905 15.5599 17.6105 18.4099 17.6105 21.9199C17.6105 23.8799 18.5305 25.7399 20.0805 26.9199C17.4505 28.0799 15.4205 30.3499 14.5905 33.0299C14.5205 33.3199 14.5205 33.6099 14.6405 33.8799C14.7605 34.1499 15.0005 34.3399 15.2905 34.4099C15.4105 34.4299 15.5305 34.4599 15.6505 34.4599C15.8205 34.4599 15.9905 34.4399 16.1305 34.3599C16.4005 34.2399 16.5905 33.9999 16.6605 33.7299C17.6305 30.5399 20.6705 28.3199 24.0305 28.3199C27.3705 28.3199 30.3605 30.5399 31.3305 33.7299C31.5005 34.3099 32.0805 34.5999 32.7105 34.4299C33.2905 34.2599 33.5805 33.6799 33.4105 33.0499C32.5905 30.3299 30.5405 28.0799 27.9305 26.9199ZM28.1705 21.9199C28.1705 24.2899 26.3605 26.1299 24.0405 26.1299C21.7205 26.1299 19.8305 24.2399 19.8305 21.9199C19.8305 19.6499 21.7205 17.7899 24.0405 17.7899C26.3605 17.7899 28.1705 19.5999 28.1705 21.9199Z" fill="#1F4827"/>
<path d="M45.91 29.9C45.14 27.34 43.35 25.26 40.93 24.17C42.31 23.08 43.13 21.37 43.13 19.53C43.13 16.22 40.45 13.51 37.11 13.51C33.75 13.51 31.04 16.19 31.04 19.53C31.04 21.37 31.86 23.08 33.24 24.17C32.61 24.46 32.06 24.82 31.55 25.21C31.31 25.4 31.14 25.72 31.14 26.01C31.12 26.28 31.21 26.52 31.38 26.69C31.55 26.93 31.79 27.08 32.08 27.13C32.37 27.18 32.64 27.11 32.85 26.94C34.13 26.02 35.61 25.54 37.13 25.54C40.18 25.54 42.95 27.59 43.85 30.52C43.95 30.83 44.14 31.08 44.41 31.2C44.56 31.27 44.7 31.3 44.85 31.3C44.97 31.3 45.12 31.28 45.24 31.23C45.55 31.13 45.82 30.92 45.94 30.65C46.03 30.4 46.03 30.14 45.91 29.9ZM40.88 19.55C40.88 21.7 39.21 23.39 37.11 23.39C34.98 23.39 33.27 21.67 33.27 19.55C33.27 17.43 34.99 15.71 37.11 15.71C39.19 15.71 40.88 17.43 40.88 19.55Z" fill="#1F4827"/>
<path d="M15.9102 27.14C16.2002 27.09 16.4402 26.95 16.6102 26.7C16.7802 26.51 16.8802 26.29 16.8502 26.02C16.8302 25.71 16.6802 25.42 16.4402 25.22L16.3902 25.17C15.8802 24.78 15.3502 24.44 14.7502 24.15C16.1302 23.06 16.9502 21.35 16.9502 19.51C16.9502 16.2 14.2702 13.49 10.9302 13.49C7.57024 13.49 4.86023 16.17 4.86023 19.51C4.86023 21.35 5.68023 23.06 7.06023 24.15C4.64023 25.24 2.83023 27.32 2.08023 29.88C1.96023 30.12 1.96023 30.36 2.08023 30.61C2.20023 30.9 2.47023 31.12 2.76023 31.19C2.91023 31.24 3.03023 31.29 3.17023 31.29C3.32023 31.29 3.46023 31.27 3.58023 31.19C3.85023 31.07 4.06023 30.8 4.14023 30.51C5.06023 27.54 7.79023 25.53 10.9302 25.53C12.4002 25.53 13.8502 26.01 15.1402 26.93C15.3602 27.12 15.6202 27.19 15.9102 27.14ZM14.7102 19.55C14.7102 21.7 13.0702 23.39 10.9402 23.39C8.81023 23.39 7.10023 21.67 7.10023 19.55C7.10023 17.43 8.82023 15.71 10.9402 15.71C13.0102 15.71 14.7102 17.43 14.7102 19.55Z" fill="#1F4827"/>
</svg>
